<?xml version="1.0" encoding="UTF-8" standalone="no"?>
<svg
   width="894.36523"
   zoomAndPan="magnify"
   viewBox="0 0 670.77393 127.23667"
   height="169.6489"
   preserveAspectRatio="xMidYMid"
   version="1.0"
   id="svg43"
   sodipodi:docname="logosaude.svg"
   xmlns:inkscape="http://www.inkscape.org/namespaces/inkscape"
   xmlns:sodipodi="http://sodipodi.sourceforge.net/DTD/sodipodi-0.dtd"
   xmlns="http://www.w3.org/2000/svg"
   xmlns:svg="http://www.w3.org/2000/svg">
  <sodipodi:namedview
     id="namedview43"
     pagecolor="#ffffff"
     bordercolor="#000000"
     borderopacity="0.25"
     inkscape:showpageshadow="2"
     inkscape:pageopacity="0.0"
     inkscape:pagecheckerboard="0"
     inkscape:deskcolor="#d1d1d1" />
  <defs
     id="defs1" />
  <g
     fill="#000000"
     fill-opacity="0.4"
     id="g4"
     transform="translate(-432.59042,-324.96723)">
    <g
       transform="translate(429.12396,467.76641)"
       id="g3">
      <g
         id="g2">
        <path
           d="m 33.25,-106.78125 c 3.601562,-0.875 7.503906,-1.3125 11.703125,-1.3125 4.207031,0 7.945313,0.54687 11.21875,1.64062 2.1875,0.65625 3.6875,1.23047 4.5,1.71875 0.820313,0.49219 1.671875,1.28125 2.546875,2.375 1.851562,2.398442 3.132812,4.714849 3.84375,6.95313 0.71875,2.242188 1.078125,3.742188 1.078125,4.5 0,0.992188 -0.277344,1.59375 -0.828125,1.8125 -0.105469,0 -0.265625,0 -0.484375,0 -0.65625,0 -1.421875,-0.21875 -2.296875,-0.65625 -1.09375,-0.550781 -4.042969,-1.367188 -8.84375,-2.453125 -3.71875,-0.875 -6.996094,-1.3125 -9.828125,-1.3125 -0.117187,0 -0.964844,0.02734 -2.546875,0.07813 -1.585938,0.05469 -3.902344,0.574219 -6.953125,1.5625 -1.96875,0.648438 -3.914063,1.683594 -5.828125,3.109375 -1.90625,1.417969 -3.292969,2.835937 -4.15625,4.25 -0.4375,0.773437 -0.6875,1.324219 -0.75,1.65625 -0.05469,0.324219 -0.07813,0.59375 -0.07813,0.8125 0,0.429687 0.109375,1.027344 0.328125,1.796875 0.65625,2.398438 2.019531,4.25 4.09375,5.5625 2.070312,1.3125 6.054688,2.953125 11.953125,4.921875 8.414063,2.730469 14.914063,5.949219 19.5,9.65625 4.582031,3.710937 7.582031,8.1875 9,13.4375 0.65625,2.074219 0.984375,3.984375 0.984375,5.734375 0,0.105469 -0.02734,0.652344 -0.07813,1.640625 -0.05469,0.980469 -0.464844,2.507813 -1.234375,4.578125 -1.960938,5.78125 -6.054688,10.421875 -12.28125,13.921875 -6.21875,3.492187 -13.101562,5.234375 -20.640625,5.234375 -0.542969,0 -1.03125,0 -1.46875,0 -2.730469,0 -4.859375,-0.21875 -6.390625,-0.65625 -1.523438,-0.4375 -3.703125,-1.253906 -6.546875,-2.453125 -1.855469,-0.757813 -2.949219,-1.195313 -3.28125,-1.3125 -1.199219,-0.21875 -2.976563,-1.335937 -5.328125,-3.359375 -2.34375,-2.019531 -3.515625,-3.460938 -3.515625,-4.328125 0,-0.65625 -0.542969,-1.75 -1.625,-3.28125 -1.09375,-1.632813 -1.640625,-2.78125 -1.640625,-3.4375 0,-0.4375 0.269531,-0.65625 0.8125,-0.65625 0,0 0.054688,0 0.171875,0 0.101563,0.105469 0.265625,0.15625 0.484375,0.15625 0.757812,0.21875 1.578125,0.65625 2.453125,1.3125 0.550781,0.4375 1.046875,0.65625 1.484375,0.65625 0.320312,0 1.25,0.601563 2.78125,1.796875 2.175781,1.648438 4.382812,2.605469 6.625,2.875 2.238281,0.273438 3.90625,0.40625 5,0.40625 2.625,0 5.410156,-0.328125 8.359375,-0.984375 3.8125,-0.757813 7.191406,-2.039063 10.140625,-3.84375 2.945312,-1.800781 4.882812,-3.546875 5.8125,-5.234375 0.9375,-1.695312 1.40625,-3.09375 1.40625,-4.1875 0,-0.976562 -0.277344,-1.90625 -0.828125,-2.78125 -2.074219,-3.707031 -7.804687,-7.035156 -17.1875,-9.984375 -8.40625,-2.625 -14.632813,-5.847656 -18.671875,-9.671875 -4.804688,-4.476562 -7.480469,-9.554688 -8.03125,-15.234375 0,-0.539063 0,-1.03125 0,-1.46875 0,-5.351563 2.238281,-10.457031 6.71875,-15.3125 4.476572,-4.86329 10.59376,-8.27344 18.34376,-10.23438 z m 0,0"
           id="path2" />
      </g>
    </g>
  </g>
  <g
     fill="#000000"
     fill-opacity="0.4"
     id="g7"
     transform="translate(-432.59042,-324.96723)">
    <g
       transform="translate(524.27923,467.76641)"
       id="g6">
      <g
         id="g5">
        <path
           d="m 46.1875,-75.671875 c -0.875,-2.832031 -1.367188,-4.25 -1.46875,-4.25 -0.117188,0 -1.671875,3.65625 -4.671875,10.96875 -3,7.3125 -4.9375,12.0625 -5.8125,14.25 -0.117187,0.4375 -0.148437,0.714844 -0.09375,0.828125 0.0625,0.105469 0.363281,0.04687 0.90625,-0.171875 0.875,-0.332031 3.003906,-0.660156 6.390625,-0.984375 6.875,-0.875 10.039062,-1.75 9.5,-2.625 -0.117188,-0.21875 -0.0625,-0.328125 0.15625,-0.328125 0.113281,0 0.28125,0.05859 0.5,0.171875 0.65625,0.21875 0.984375,-0.109375 0.984375,-0.984375 0,-1.09375 -0.546875,-2.625 -1.640625,-4.59375 -1.09375,-2.070313 -1.640625,-3.4375 -1.640625,-4.09375 0,-0.644531 -0.304687,-1.457031 -0.90625,-2.4375 -0.59375,-0.988281 -1.328125,-2.90625 -2.203125,-5.75 z m -8.359375,-30.296875 c 2.070313,-0.4375 4.609375,-0.67969 7.609375,-0.73438 3.007812,-0.0508 5.113281,0.14063 6.3125,0.57813 0.875,0.21875 1.503906,0.63281 1.890625,1.23437 0.382813,0.59375 0.847656,1.875 1.390625,3.84375 0.976562,3.167974 3.597656,10.183599 7.859375,21.04688 4.257813,10.867188 6.9375,17.496094 8.03125,19.890625 0.65625,1.09375 1.171875,1.726563 1.546875,1.890625 0.382812,0.15625 1.671875,0.234375 3.859375,0.234375 2.070313,0 3.269531,0.05859 3.59375,0.171875 0.332031,0.105469 0.441406,0.542969 0.328125,1.3125 0,1.09375 0.328125,1.914062 0.984375,2.453125 0.332031,0.4375 0.5,0.765625 0.5,0.984375 0,0.21875 -0.167969,0.492188 -0.5,0.8125 -0.542969,0.65625 -1.089844,0.875 -1.640625,0.65625 -0.21875,-0.101562 -0.355469,-0.09766 -0.40625,0.01563 -0.05469,0.105469 -0.02734,0.320313 0.07813,0.640625 0.21875,0.65625 0.492187,0.984375 0.828125,0.984375 0.4375,0 0.65625,0.273437 0.65625,0.8125 0,0.4375 -0.765625,0.546875 -2.296875,0.328125 -0.4375,0 -0.792969,0 -1.0625,0 -0.273437,0 -0.492187,0.03125 -0.65625,0.09375 -0.167969,0.05469 -0.25,0.136719 -0.25,0.25 0,0.105469 0,0.210938 0,0.3125 0.4375,1.09375 0.875,2.625 1.3125,4.59375 0.539063,2.074219 2.015625,6.140625 4.421875,12.203125 2.40625,6.054687 3.878906,9.355469 4.421875,9.90625 0.4375,0.542969 0.570313,1.386719 0.40625,2.53125 -0.167969,1.148437 -0.523437,1.777344 -1.0625,1.890625 -0.875,0.324219 -3.335937,0.484375 -7.375,0.484375 -4.03125,0 -6.8125,-0.160156 -8.34375,-0.484375 C 69.054688,-17.25 68.039062,-17.820312 67.21875,-18.75 66.40625,-19.675781 66,-20.742188 66,-21.953125 c 0,-1.082031 -0.21875,-1.734375 -0.65625,-1.953125 -0.4375,-0.113281 -0.710938,-0.441406 -0.8125,-0.984375 -0.21875,-0.769531 -0.496094,-1.425781 -0.828125,-1.96875 -0.324219,-0.65625 -0.539063,-1.472656 -0.640625,-2.453125 0,-0.988281 -0.277344,-1.644531 -0.828125,-1.96875 -0.65625,-0.4375 -1.09375,-2.019531 -1.3125,-4.75 -0.105469,-0.320312 -0.375,-0.320312 -0.8125,0 -0.335937,0.21875 -0.5,0.273438 -0.5,0.15625 0,-0.101562 0.164063,-0.375 0.5,-0.8125 0.539063,-0.65625 0.648437,-1.09375 0.328125,-1.3125 -0.4375,-0.21875 -0.765625,-0.984375 -0.984375,-2.296875 -0.21875,-0.863281 -0.464844,-1.378906 -0.734375,-1.546875 -0.273438,-0.164062 -1.011719,-0.140625 -2.21875,0.07813 -2.835938,0.4375 -6.601562,0.765625 -11.296875,0.984375 -2.949219,0.105469 -4.859375,0.433594 -5.734375,0.984375 -0.875,0.4375 -3.007812,0.820313 -6.390625,1.140625 -3.386719,0.21875 -5.242187,0.496094 -5.5625,0.828125 -0.324219,0.4375 -1.25,2.730469 -2.78125,6.875 -1.636719,4.148437 -2.949219,7.3125 -3.9375,9.5 L 19.15625,-18.34375 13.75,-18.828125 c -3.492188,-0.21875 -6.164062,-0.601563 -8.015625,-1.15625 -0.65625,-0.21875 -1.09375,-0.40625 -1.3125,-0.5625 C 4.203125,-20.710938 3.957031,-20.90625 3.6875,-21.125 3.414062,-21.34375 3.359375,-21.695312 3.515625,-22.1875 3.679688,-22.675781 3.875,-23.222656 4.09375,-23.828125 c 0.21875,-0.601563 0.546875,-1.503906 0.984375,-2.703125 0.21875,-0.539062 0.765625,-1.875 1.640625,-4 0.875,-2.132812 1.582031,-3.804688 2.125,-5.015625 1.632812,-4.03125 2.671875,-7.796875 3.109375,-11.296875 0.550781,-3.707031 0.9375,-5.726562 1.15625,-6.0625 0.21875,-0.21875 0.707031,-0.05078 1.46875,0.5 0.320313,0.324219 0.644531,0.265625 0.96875,-0.171875 0.332031,-0.4375 0.9375,-1.582031 1.8125,-3.4375 1.3125,-2.945313 1.96875,-4.691406 1.96875,-5.234375 0,-0.550781 0.160156,-0.828125 0.484375,-0.828125 0.332031,0 0.769531,-0.816406 1.3125,-2.453125 0.875,-3.382812 1.859375,-6.164062 2.953125,-8.34375 0.4375,-0.769531 1.828125,-4.675781 4.171875,-11.71875 2.351562,-7.039062 4.179688,-12.691406 5.484375,-16.95313 0.65625,-1.85156 1.144531,-3 1.46875,-3.4375 0.332031,-0.4375 1.207031,-0.76562 2.625,-0.98437 z m 0,0"
           id="path4" />
      </g>
    </g>
  </g>
  <g
     fill="#000000"
     fill-opacity="0.4"
     id="g10"
     transform="translate(-432.59042,-324.96723)">
    <g
       transform="translate(631.06278,467.76641)"
       id="g9">
      <g
         id="g8">
        <path
           d="m 69.609375,-105.46875 c 1.632813,-0.21875 3.328125,-0.38281 5.078125,-0.5 1.195312,-0.10156 2.914062,0.0391 5.15625,0.42187 2.238281,0.375 4.125,1.21875 5.65625,2.53125 0.644531,0.65625 0.992188,1.83594 1.046875,3.531255 0.0625,1.6875 0.09375,2.75 0.09375,3.1875 0,2.511719 -0.21875,5.242187 -0.65625,8.1875 -1.3125,8.292969 -1.96875,19.589844 -1.96875,33.890625 0,4.15625 0,7.433594 0,9.828125 0,2.511719 0.02344,4.34375 0.07813,5.5 0.0625,1.148437 0.253906,2.101563 0.578125,2.859375 0.21875,0.4375 0.328125,0.765625 0.328125,0.984375 0,0.324219 -0.164062,0.542969 -0.484375,0.65625 -0.21875,0.105469 -0.328125,0.265625 -0.328125,0.484375 0,0.335938 0.21875,0.71875 0.65625,1.15625 0.757812,1.960938 1.25,2.9375 1.46875,2.9375 h 0.65625 l 0.65625,4.421875 c 0,0.773437 0.269531,2.085937 0.8125,3.9375 0.769531,1.96875 1.15625,3.171875 1.15625,3.609375 0,0.429688 -0.328125,0.859375 -0.984375,1.296875 -0.554687,0.4375 -2.414063,0.65625 -5.578125,0.65625 -0.65625,0 -1.367188,0 -2.125,0 -2.949219,-0.101563 -4.859375,-0.265625 -5.734375,-0.484375 -0.875,-0.21875 -1.914063,-0.765625 -3.109375,-1.640625 C 70.644531,-19.210938 69.222656,-21.039062 67.796875,-23.5 66.378906,-25.957031 65.125,-28.660156 64.03125,-31.609375 L 62.734375,-35.875 60.4375,-31.28125 c -1.3125,2.730469 -2.789062,5.1875 -4.421875,7.375 -1.636719,2.179688 -3.167969,3.761719 -4.59375,4.75 -2.398437,1.636719 -4.882813,2.621094 -7.453125,2.953125 -2.5625,0.324219 -4.5,0.484375 -5.8125,0.484375 -2.398438,0 -4.742188,-0.328125 -7.03125,-0.984375 -6.335938,-1.632813 -11.117188,-4.910156 -14.34375,-9.828125 -3.21875,-4.914062 -5.320312,-12.234375 -6.296875,-21.953125 -0.4375,-3.382813 -0.65625,-12.144531 -0.65625,-26.28125 0,-14.132813 0.160156,-22.566406 0.484375,-25.296875 0.21875,-1.64453 0.460938,-2.6875 0.734375,-3.125 0.28125,-0.4375 0.800781,-0.76563 1.5625,-0.98438 1.53125,-0.42578 3.769531,-0.64062 6.71875,-0.64062 0.320313,0 0.648437,0 0.984375,0 2.289062,0 4.472656,0.35547 6.546875,1.0625 2.070313,0.71094 3.382813,1.60937 3.9375,2.70312 0.21875,0.32422 0.328125,0.97657 0.328125,1.95313 0,1.429688 -0.21875,3.617188 -0.65625,6.5625 -0.65625,4.804688 -1.015625,10.042969 -1.078125,15.71875 -0.05469,5.679688 -0.07813,8.953125 -0.07813,9.828125 0,8.949219 0.273438,15.226563 0.828125,18.828125 0.875,5.898438 2.15625,10.074219 3.84375,12.53125 1.6875,2.460938 3.84375,3.6875 6.46875,3.6875 2.289063,0 4.3125,-0.789062 6.0625,-2.375 1.75,-1.582031 3.550781,-3.957031 5.40625,-7.125 2.175781,-3.707031 3.894531,-7.304688 5.15625,-10.796875 1.257813,-3.5 2.625,-7.488281 4.09375,-11.96875 1.476563,-4.476563 2.976563,-12.832031 4.5,-25.0625 0.21875,-2.070313 0.382813,-4.632813 0.5,-7.6875 0.21875,-4.812505 0.4375,-7.328125 0.65625,-7.546875 0.4375,-0.42578 1.363281,-0.75 2.78125,-0.96875 z m -20.140625,-31.9375 c 0.644531,-0.76953 1.160156,-1.20703 1.546875,-1.3125 0.382813,-0.11328 0.738281,-0.17187 1.0625,-0.17187 0.332031,0 0.609375,0 0.828125,0 1.632812,0.21875 3.242188,0.85156 4.828125,1.89062 1.582031,1.03125 2.644531,2.09375 3.1875,3.1875 l 0.984375,1.8125 -4.75,4.42187 c -1.960938,1.85547 -3.324219,3.13672 -4.09375,3.84375 -0.761719,0.71094 -1.714844,1.52735 -2.859375,2.45313 -1.148437,0.92969 -1.859375,1.47656 -2.140625,1.64062 -0.273438,0.16797 -0.84375,0.38672 -1.71875,0.65625 -0.867188,0.27344 -1.492188,0.40625 -1.875,0.40625 -0.386719,0 -1.125,0 -2.21875,0 -3.273438,0 -5.015625,-0.10937 -5.234375,-0.32812 0,0 0,-0.0508 0,-0.15625 0,-0.76953 1.5,-3.39063 4.5,-7.85938 3,-4.47656 5.648437,-7.97265 7.953125,-10.48437 z m 0,0"
           id="path7" />
      </g>
    </g>
  </g>
  <g
     fill="#000000"
     fill-opacity="0.4"
     id="g13"
     transform="translate(-432.59042,-324.96723)">
    <g
       transform="translate(746.85415,467.76641)"
       id="g12">
      <g
         id="g11">
        <path
           d="m 36.6875,-107.10938 c 2.070312,-0.21875 4.035156,-0.32812 5.890625,-0.32812 3.820313,0 7.804687,0.54687 11.953125,1.64062 4.15625,1.08594 8.523438,3.26563 13.109375,6.54688 3.925781,2.835938 7.335937,6.65625 10.234375,11.46875 2.894531,4.804688 4.671875,9.714844 5.328125,14.734375 0.101563,1.53125 0.265625,2.84375 0.484375,3.9375 0.113281,0.4375 0.171875,0.980469 0.171875,1.625 0,1.53125 -0.167969,3.71875 -0.5,6.5625 -0.324219,4.042969 -1.226563,8.328125 -2.703125,12.859375 -1.46875,4.53125 -3.132812,8.164062 -4.984375,10.890625 -2.1875,3.386719 -5.277344,6.773437 -9.265625,10.15625 -3.980469,3.375 -7.226562,5.449219 -9.734375,6.21875 -1.53125,0.542969 -3.0625,1.089844 -4.59375,1.640625 -1.636719,0.648438 -2.917969,1.109375 -3.84375,1.390625 -0.929687,0.273437 -3.085937,0.570313 -6.46875,0.890625 -1.855469,0.21875 -5.402344,0.328125 -10.640625,0.328125 -1.648438,0 -5.089844,-0.02344 -10.328125,-0.07813 C 15.554688,-16.675785 12.5,-16.867193 11.625,-17.20313 c -0.4375,-0.21875 -0.742188,-1.085937 -0.90625,-2.609375 -0.15625,-1.53125 -0.292969,-4.644531 -0.40625,-9.34375 -0.324219,-7.425781 -0.484375,-20.828125 -0.484375,-40.203125 0,-19.382813 0.109375,-30.113281 0.328125,-32.18751 0,-0.10156 0.05078,-0.21093 0.15625,-0.32812 0.113281,-1.63281 0.660156,-2.58593 1.640625,-2.85938 0.988281,-0.26953 4.320313,-0.625 10,-1.0625 0.539063,-0.11328 0.972656,-0.17187 1.296875,-0.17187 6.445312,-0.53906 10.925781,-0.92188 13.4375,-1.14063 z m 16.875,19.98438 c -1.429688,-0.769531 -2.714844,-1.207031 -3.859375,-1.3125 -1.148437,-0.113281 -3.085937,-0.222656 -5.8125,-0.328125 -1.417969,-0.113281 -2.726563,-0.171875 -3.921875,-0.171875 -3.28125,0 -6.230469,0.21875 -8.84375,0.65625 -0.875,0.21875 -1.453125,0.4375 -1.734375,0.65625 -0.273437,0.21875 -0.460937,0.765625 -0.5625,1.640625 C 28.492188,-84.566406 28.21875,-75.613281 28,-59.125 l -0.328125,24.734375 h 7.546875 c 8.945312,0 15.601562,-1.691406 19.96875,-5.078125 4.375,-3.382812 7.269531,-9.0625 8.6875,-17.03125 0.4375,-2.726562 0.65625,-5.347656 0.65625,-7.859375 0,-5.789063 -1.203125,-11.035156 -3.609375,-15.734375 -1.09375,-1.957031 -2.054687,-3.347656 -2.875,-4.171875 -0.8125,-0.820313 -2.308594,-1.773437 -4.484375,-2.859375 z m 0,0"
           id="path10" />
      </g>
    </g>
  </g>
  <g
     fill="#000000"
     fill-opacity="0.4"
     id="g16"
     transform="translate(-432.59042,-324.96723)">
    <g
       transform="translate(854.45659,467.76641)"
       id="g15">
      <g
         id="g14">
        <path
           d="m 61.90625,-109.40625 c 0.4375,0 1.035156,-0.0508 1.796875,-0.15625 1.207031,-0.11328 2,-0.22266 2.375,-0.32813 0.382813,-0.11328 0.6875,-0.17187 0.90625,-0.17187 0.332031,0 0.742187,0.0586 1.234375,0.17187 0.488281,0.10547 0.8125,0.1875 0.96875,0.25 0.164062,0.0547 0.46875,0.32422 0.90625,0.8125 0.4375,0.49219 0.738281,0.92969 0.90625,1.3125 0.164062,0.375 0.519531,1.0586 1.0625,2.04688 0.21875,0.54297 0.382812,0.97656 0.5,1.29687 1.738281,3.5 2.769531,5.773442 3.09375,6.812505 0.332031,1.03125 0.5,1.820313 0.5,2.359375 0,0.65625 -0.164062,1.203125 -0.484375,1.640625 -0.335937,0.4375 -1.570313,0.765625 -3.703125,0.984375 -2.125,0.21875 -6.789062,0.496094 -13.984375,0.828125 -11.90625,0.542969 -19.386719,0.921875 -22.4375,1.140625 l -5.578125,0.484375 -0.15625,9.5 c 0,2.625 -0.03125,4.375 -0.09375,5.25 -0.05469,0.875 -0.07813,1.476563 -0.07813,1.796875 0,0.980469 0.109375,1.828125 0.328125,2.546875 0.21875,0.710937 0.460938,1.121094 0.734375,1.234375 0.28125,0.105469 0.53125,0.15625 0.75,0.15625 0.21875,0 0.429687,0 0.640625,0 1.75,-0.550781 6.390625,-1.046875 13.921875,-1.484375 3.0625,-0.21875 6.832031,-0.597656 11.3125,-1.140625 5.019531,-0.65625 7.96875,-0.984375 8.84375,-0.984375 0.757813,0 1.6875,0.984375 2.78125,2.953125 1.09375,1.960938 1.9375,3.949219 2.53125,5.96875 0.601563,2.023438 0.90625,3.527344 0.90625,4.515625 0,0.542969 -0.05469,0.976563 -0.15625,1.296875 -0.117187,0.875 -0.558594,1.398438 -1.328125,1.5625 -0.761719,0.167969 -3.214844,0.304688 -7.359375,0.40625 0,0 -0.05469,0 -0.15625,0 -6.449219,0.335938 -13.742187,0.828125 -21.875,1.484375 -8.136719,0.648437 -12.3125,1.136719 -12.53125,1.46875 -0.21875,0.324219 -0.492187,3.929687 -0.8125,10.8125 l -0.5,9.5 2.796875,-0.5 c 2.289062,-0.21875 8.019531,-0.546875 17.1875,-0.984375 8.519531,-0.320312 14.144531,-0.648438 16.875,-0.984375 0,0 0.953125,-0.07813 2.859375,-0.234375 1.914063,-0.164062 3.363281,-0.304688 4.34375,-0.421875 l 4.75,-0.3125 2.296875,4.734375 c 1.09375,2.523438 1.910156,4.902344 2.453125,7.140625 0.539063,2.230469 0.8125,3.78125 0.8125,4.65625 0,0.65625 -0.105469,1.09375 -0.3125,1.3125 -0.335937,0.4375 -8.417969,0.765625 -24.25,0.984375 -15.835937,0.324219 -25.664063,0.652344 -29.484375,0.984375 -4.148438,0.4375 -7.367188,0.65625 -9.65625,0.65625 -1.75,0 -2.902344,-0.08203 -3.453125,-0.25 -0.542969,-0.164063 -1.085937,-0.628906 -1.625,-1.390625 -1.3125,-1.96875 -2.027344,-4.316406 -2.140625,-7.046875 -0.105469,-2.726563 -0.15625,-4.859375 -0.15625,-6.390625 0,-6.113281 0.273438,-17.140625 0.828125,-33.078125 0.320313,-10.476563 0.484375,-17.519531 0.484375,-21.125 0,-0.550781 -0.02734,-1.644531 -0.07813,-3.28125 -0.05469,-1.632813 -0.40625,-3.546875 -1.0625,-5.734375 -0.773437,-2.394531 -1.183594,-4.273438 -1.234375,-5.640625 -0.054688,-1.363285 -0.078125,-2.156255 -0.078125,-2.375005 0,-1.75 0.269531,-2.73437 0.8125,-2.95312 0.875,-0.21875 13.429687,-1.20313 37.671875,-2.95313 6.332031,-0.32031 10.863281,-0.70312 13.59375,-1.14062 z m 0,0"
           id="path13" />
      </g>
    </g>
  </g>
  <g
     fill="#0a8f2a"
     fill-opacity="1"
     id="g19"
     transform="translate(-432.59042,-324.96723)">
    <g
       transform="translate(425.21541,463.85786)"
       id="g18">
      <g
         id="g17">
        <path
           d="m 33.25,-106.78125 c 3.601562,-0.875 7.503906,-1.3125 11.703125,-1.3125 4.207031,0 7.945313,0.54687 11.21875,1.64062 2.1875,0.65625 3.6875,1.23047 4.5,1.71875 0.820313,0.49219 1.671875,1.28125 2.546875,2.375 1.851562,2.398442 3.132812,4.714849 3.84375,6.95313 0.71875,2.242188 1.078125,3.742188 1.078125,4.5 0,0.992188 -0.277344,1.59375 -0.828125,1.8125 -0.105469,0 -0.265625,0 -0.484375,0 -0.65625,0 -1.421875,-0.21875 -2.296875,-0.65625 -1.09375,-0.550781 -4.042969,-1.367188 -8.84375,-2.453125 -3.71875,-0.875 -6.996094,-1.3125 -9.828125,-1.3125 -0.117187,0 -0.964844,0.02734 -2.546875,0.07813 -1.585938,0.05469 -3.902344,0.574219 -6.953125,1.5625 -1.96875,0.648438 -3.914063,1.683594 -5.828125,3.109375 -1.90625,1.417969 -3.292969,2.835937 -4.15625,4.25 -0.4375,0.773437 -0.6875,1.324219 -0.75,1.65625 -0.05469,0.324219 -0.07813,0.59375 -0.07813,0.8125 0,0.429687 0.109375,1.027344 0.328125,1.796875 0.65625,2.398438 2.019531,4.25 4.09375,5.5625 2.070312,1.3125 6.054688,2.953125 11.953125,4.921875 8.414063,2.730469 14.914063,5.949219 19.5,9.65625 4.582031,3.710937 7.582031,8.1875 9,13.4375 0.65625,2.074219 0.984375,3.984375 0.984375,5.734375 0,0.105469 -0.02734,0.652344 -0.07813,1.640625 -0.05469,0.980469 -0.464844,2.507813 -1.234375,4.578125 -1.960938,5.78125 -6.054688,10.421875 -12.28125,13.921875 -6.21875,3.492187 -13.101562,5.234375 -20.640625,5.234375 -0.542969,0 -1.03125,0 -1.46875,0 -2.730469,0 -4.859375,-0.21875 -6.390625,-0.65625 -1.523438,-0.4375 -3.703125,-1.253906 -6.546875,-2.453125 -1.855469,-0.757813 -2.949219,-1.195313 -3.28125,-1.3125 -1.199219,-0.21875 -2.976563,-1.335937 -5.328125,-3.359375 -2.34375,-2.019531 -3.515625,-3.460938 -3.515625,-4.328125 0,-0.65625 -0.542969,-1.75 -1.625,-3.28125 -1.09375,-1.632813 -1.640625,-2.78125 -1.640625,-3.4375 0,-0.4375 0.269531,-0.65625 0.8125,-0.65625 0,0 0.054688,0 0.171875,0 0.101563,0.105469 0.265625,0.15625 0.484375,0.15625 0.757812,0.21875 1.578125,0.65625 2.453125,1.3125 0.550781,0.4375 1.046875,0.65625 1.484375,0.65625 0.320312,0 1.25,0.601563 2.78125,1.796875 2.175781,1.648438 4.382812,2.605469 6.625,2.875 2.238281,0.273438 3.90625,0.40625 5,0.40625 2.625,0 5.410156,-0.328125 8.359375,-0.984375 3.8125,-0.757813 7.191406,-2.039063 10.140625,-3.84375 2.945312,-1.800781 4.882812,-3.546875 5.8125,-5.234375 0.9375,-1.695312 1.40625,-3.09375 1.40625,-4.1875 0,-0.976562 -0.277344,-1.90625 -0.828125,-2.78125 -2.074219,-3.707031 -7.804687,-7.035156 -17.1875,-9.984375 -8.40625,-2.625 -14.632813,-5.847656 -18.671875,-9.671875 -4.804688,-4.476562 -7.480469,-9.554688 -8.03125,-15.234375 0,-0.539063 0,-1.03125 0,-1.46875 0,-5.351563 2.238281,-10.457031 6.71875,-15.3125 4.476572,-4.86329 10.59376,-8.27344 18.34376,-10.23438 z m 0,0"
           id="path16" />
      </g>
    </g>
  </g>
  <g
     fill="#0a8f2a"
     fill-opacity="1"
     id="g22"
     transform="translate(-432.59042,-324.96723)">
    <g
       transform="translate(520.37068,463.85786)"
       id="g21">
      <g
         id="g20">
        <path
           d="m 46.1875,-75.671875 c -0.875,-2.832031 -1.367188,-4.25 -1.46875,-4.25 -0.117188,0 -1.671875,3.65625 -4.671875,10.96875 -3,7.3125 -4.9375,12.0625 -5.8125,14.25 -0.117187,0.4375 -0.148437,0.714844 -0.09375,0.828125 0.0625,0.105469 0.363281,0.04687 0.90625,-0.171875 0.875,-0.332031 3.003906,-0.660156 6.390625,-0.984375 6.875,-0.875 10.039062,-1.75 9.5,-2.625 -0.117188,-0.21875 -0.0625,-0.328125 0.15625,-0.328125 0.113281,0 0.28125,0.05859 0.5,0.171875 0.65625,0.21875 0.984375,-0.109375 0.984375,-0.984375 0,-1.09375 -0.546875,-2.625 -1.640625,-4.59375 -1.09375,-2.070313 -1.640625,-3.4375 -1.640625,-4.09375 0,-0.644531 -0.304687,-1.457031 -0.90625,-2.4375 -0.59375,-0.988281 -1.328125,-2.90625 -2.203125,-5.75 z m -8.359375,-30.296875 c 2.070313,-0.4375 4.609375,-0.67969 7.609375,-0.73438 3.007812,-0.0508 5.113281,0.14063 6.3125,0.57813 0.875,0.21875 1.503906,0.63281 1.890625,1.23437 0.382813,0.59375 0.847656,1.875 1.390625,3.84375 0.976562,3.167974 3.597656,10.183599 7.859375,21.04688 4.257813,10.867188 6.9375,17.496094 8.03125,19.890625 0.65625,1.09375 1.171875,1.726563 1.546875,1.890625 0.382812,0.15625 1.671875,0.234375 3.859375,0.234375 2.070313,0 3.269531,0.05859 3.59375,0.171875 0.332031,0.105469 0.441406,0.542969 0.328125,1.3125 0,1.09375 0.328125,1.914062 0.984375,2.453125 0.332031,0.4375 0.5,0.765625 0.5,0.984375 0,0.21875 -0.167969,0.492188 -0.5,0.8125 -0.542969,0.65625 -1.089844,0.875 -1.640625,0.65625 -0.21875,-0.101562 -0.355469,-0.09766 -0.40625,0.01563 -0.05469,0.105469 -0.02734,0.320313 0.07813,0.640625 0.21875,0.65625 0.492187,0.984375 0.828125,0.984375 0.4375,0 0.65625,0.273437 0.65625,0.8125 0,0.4375 -0.765625,0.546875 -2.296875,0.328125 -0.4375,0 -0.792969,0 -1.0625,0 -0.273437,0 -0.492187,0.03125 -0.65625,0.09375 -0.167969,0.05469 -0.25,0.136719 -0.25,0.25 0,0.105469 0,0.210938 0,0.3125 0.4375,1.09375 0.875,2.625 1.3125,4.59375 0.539063,2.074219 2.015625,6.140625 4.421875,12.203125 2.40625,6.054687 3.878906,9.355469 4.421875,9.90625 0.4375,0.542969 0.570313,1.386719 0.40625,2.53125 -0.167969,1.148437 -0.523437,1.777344 -1.0625,1.890625 -0.875,0.324219 -3.335937,0.484375 -7.375,0.484375 -4.03125,0 -6.8125,-0.160156 -8.34375,-0.484375 C 69.054688,-17.25 68.039062,-17.820312 67.21875,-18.75 66.40625,-19.675781 66,-20.742188 66,-21.953125 c 0,-1.082031 -0.21875,-1.734375 -0.65625,-1.953125 -0.4375,-0.113281 -0.710938,-0.441406 -0.8125,-0.984375 -0.21875,-0.769531 -0.496094,-1.425781 -0.828125,-1.96875 -0.324219,-0.65625 -0.539063,-1.472656 -0.640625,-2.453125 0,-0.988281 -0.277344,-1.644531 -0.828125,-1.96875 -0.65625,-0.4375 -1.09375,-2.019531 -1.3125,-4.75 -0.105469,-0.320312 -0.375,-0.320312 -0.8125,0 -0.335937,0.21875 -0.5,0.273438 -0.5,0.15625 0,-0.101562 0.164063,-0.375 0.5,-0.8125 0.539063,-0.65625 0.648437,-1.09375 0.328125,-1.3125 -0.4375,-0.21875 -0.765625,-0.984375 -0.984375,-2.296875 -0.21875,-0.863281 -0.464844,-1.378906 -0.734375,-1.546875 -0.273438,-0.164062 -1.011719,-0.140625 -2.21875,0.07813 -2.835938,0.4375 -6.601562,0.765625 -11.296875,0.984375 -2.949219,0.105469 -4.859375,0.433594 -5.734375,0.984375 -0.875,0.4375 -3.007812,0.820313 -6.390625,1.140625 -3.386719,0.21875 -5.242187,0.496094 -5.5625,0.828125 -0.324219,0.4375 -1.25,2.730469 -2.78125,6.875 -1.636719,4.148437 -2.949219,7.3125 -3.9375,9.5 L 19.15625,-18.34375 13.75,-18.828125 c -3.492188,-0.21875 -6.164062,-0.601563 -8.015625,-1.15625 -0.65625,-0.21875 -1.09375,-0.40625 -1.3125,-0.5625 C 4.203125,-20.710938 3.957031,-20.90625 3.6875,-21.125 3.414062,-21.34375 3.359375,-21.695312 3.515625,-22.1875 3.679688,-22.675781 3.875,-23.222656 4.09375,-23.828125 c 0.21875,-0.601563 0.546875,-1.503906 0.984375,-2.703125 0.21875,-0.539062 0.765625,-1.875 1.640625,-4 0.875,-2.132812 1.582031,-3.804688 2.125,-5.015625 1.632812,-4.03125 2.671875,-7.796875 3.109375,-11.296875 0.550781,-3.707031 0.9375,-5.726562 1.15625,-6.0625 0.21875,-0.21875 0.707031,-0.05078 1.46875,0.5 0.320313,0.324219 0.644531,0.265625 0.96875,-0.171875 0.332031,-0.4375 0.9375,-1.582031 1.8125,-3.4375 1.3125,-2.945313 1.96875,-4.691406 1.96875,-5.234375 0,-0.550781 0.160156,-0.828125 0.484375,-0.828125 0.332031,0 0.769531,-0.816406 1.3125,-2.453125 0.875,-3.382812 1.859375,-6.164062 2.953125,-8.34375 0.4375,-0.769531 1.828125,-4.675781 4.171875,-11.71875 2.351562,-7.039062 4.179688,-12.691406 5.484375,-16.95313 0.65625,-1.85156 1.144531,-3 1.46875,-3.4375 0.332031,-0.4375 1.207031,-0.76562 2.625,-0.98437 z m 0,0"
           id="path19" />
      </g>
    </g>
  </g>
  <g
     fill="#0a8f2a"
     fill-opacity="1"
     id="g25"
     transform="translate(-432.59042,-324.96723)">
    <g
       transform="translate(627.15423,463.85786)"
       id="g24">
      <g
         id="g23">
        <path
           d="m 69.609375,-105.46875 c 1.632813,-0.21875 3.328125,-0.38281 5.078125,-0.5 1.195312,-0.10156 2.914062,0.0391 5.15625,0.42187 2.238281,0.375 4.125,1.21875 5.65625,2.53125 0.644531,0.65625 0.992188,1.83594 1.046875,3.531255 0.0625,1.6875 0.09375,2.75 0.09375,3.1875 0,2.511719 -0.21875,5.242187 -0.65625,8.1875 -1.3125,8.292969 -1.96875,19.589844 -1.96875,33.890625 0,4.15625 0,7.433594 0,9.828125 0,2.511719 0.02344,4.34375 0.07813,5.5 0.0625,1.148437 0.253906,2.101563 0.578125,2.859375 0.21875,0.4375 0.328125,0.765625 0.328125,0.984375 0,0.324219 -0.164062,0.542969 -0.484375,0.65625 -0.21875,0.105469 -0.328125,0.265625 -0.328125,0.484375 0,0.335938 0.21875,0.71875 0.65625,1.15625 0.757812,1.960938 1.25,2.9375 1.46875,2.9375 h 0.65625 l 0.65625,4.421875 c 0,0.773437 0.269531,2.085937 0.8125,3.9375 0.769531,1.96875 1.15625,3.171875 1.15625,3.609375 0,0.429688 -0.328125,0.859375 -0.984375,1.296875 -0.554687,0.4375 -2.414063,0.65625 -5.578125,0.65625 -0.65625,0 -1.367188,0 -2.125,0 -2.949219,-0.101563 -4.859375,-0.265625 -5.734375,-0.484375 -0.875,-0.21875 -1.914063,-0.765625 -3.109375,-1.640625 C 70.644531,-19.210938 69.222656,-21.039062 67.796875,-23.5 66.378906,-25.957031 65.125,-28.660156 64.03125,-31.609375 L 62.734375,-35.875 60.4375,-31.28125 c -1.3125,2.730469 -2.789062,5.1875 -4.421875,7.375 -1.636719,2.179688 -3.167969,3.761719 -4.59375,4.75 -2.398437,1.636719 -4.882813,2.621094 -7.453125,2.953125 -2.5625,0.324219 -4.5,0.484375 -5.8125,0.484375 -2.398438,0 -4.742188,-0.328125 -7.03125,-0.984375 -6.335938,-1.632813 -11.117188,-4.910156 -14.34375,-9.828125 -3.21875,-4.914062 -5.320312,-12.234375 -6.296875,-21.953125 -0.4375,-3.382813 -0.65625,-12.144531 -0.65625,-26.28125 0,-14.132813 0.160156,-22.566406 0.484375,-25.296875 0.21875,-1.64453 0.460938,-2.6875 0.734375,-3.125 0.28125,-0.4375 0.800781,-0.76563 1.5625,-0.98438 1.53125,-0.42578 3.769531,-0.64062 6.71875,-0.64062 0.320313,0 0.648437,0 0.984375,0 2.289062,0 4.472656,0.35547 6.546875,1.0625 2.070313,0.71094 3.382813,1.60937 3.9375,2.70312 0.21875,0.32422 0.328125,0.97657 0.328125,1.95313 0,1.429688 -0.21875,3.617188 -0.65625,6.5625 -0.65625,4.804688 -1.015625,10.042969 -1.078125,15.71875 -0.05469,5.679688 -0.07813,8.953125 -0.07813,9.828125 0,8.949219 0.273438,15.226563 0.828125,18.828125 0.875,5.898438 2.15625,10.074219 3.84375,12.53125 1.6875,2.460938 3.84375,3.6875 6.46875,3.6875 2.289063,0 4.3125,-0.789062 6.0625,-2.375 1.75,-1.582031 3.550781,-3.957031 5.40625,-7.125 2.175781,-3.707031 3.894531,-7.304688 5.15625,-10.796875 1.257813,-3.5 2.625,-7.488281 4.09375,-11.96875 1.476563,-4.476563 2.976563,-12.832031 4.5,-25.0625 0.21875,-2.070313 0.382813,-4.632813 0.5,-7.6875 0.21875,-4.812505 0.4375,-7.328125 0.65625,-7.546875 0.4375,-0.42578 1.363281,-0.75 2.78125,-0.96875 z m -20.140625,-31.9375 c 0.644531,-0.76953 1.160156,-1.20703 1.546875,-1.3125 0.382813,-0.11328 0.738281,-0.17187 1.0625,-0.17187 0.332031,0 0.609375,0 0.828125,0 1.632812,0.21875 3.242188,0.85156 4.828125,1.89062 1.582031,1.03125 2.644531,2.09375 3.1875,3.1875 l 0.984375,1.8125 -4.75,4.42187 c -1.960938,1.85547 -3.324219,3.13672 -4.09375,3.84375 -0.761719,0.71094 -1.714844,1.52735 -2.859375,2.45313 -1.148437,0.92969 -1.859375,1.47656 -2.140625,1.64062 -0.273438,0.16797 -0.84375,0.38672 -1.71875,0.65625 -0.867188,0.27344 -1.492188,0.40625 -1.875,0.40625 -0.386719,0 -1.125,0 -2.21875,0 -3.273438,0 -5.015625,-0.10937 -5.234375,-0.32812 0,0 0,-0.0508 0,-0.15625 0,-0.76953 1.5,-3.39063 4.5,-7.85938 3,-4.47656 5.648437,-7.97265 7.953125,-10.48437 z m 0,0"
           id="path22" />
      </g>
    </g>
  </g>
  <g
     fill="#0a8f2a"
     fill-opacity="1"
     id="g28"
     transform="translate(-432.59042,-324.96723)">
    <g
       transform="translate(742.9456,463.85786)"
       id="g27">
      <g
         id="g26">
        <path
           d="m 36.6875,-107.10938 c 2.070312,-0.21875 4.035156,-0.32812 5.890625,-0.32812 3.820313,0 7.804687,0.54687 11.953125,1.64062 4.15625,1.08594 8.523438,3.26563 13.109375,6.54688 3.925781,2.835938 7.335937,6.65625 10.234375,11.46875 2.894531,4.804688 4.671875,9.714844 5.328125,14.734375 0.101563,1.53125 0.265625,2.84375 0.484375,3.9375 0.113281,0.4375 0.171875,0.980469 0.171875,1.625 0,1.53125 -0.167969,3.71875 -0.5,6.5625 -0.324219,4.042969 -1.226563,8.328125 -2.703125,12.859375 -1.46875,4.53125 -3.132812,8.164062 -4.984375,10.890625 -2.1875,3.386719 -5.277344,6.773437 -9.265625,10.15625 -3.980469,3.375 -7.226562,5.449219 -9.734375,6.21875 -1.53125,0.542969 -3.0625,1.089844 -4.59375,1.640625 -1.636719,0.648438 -2.917969,1.109375 -3.84375,1.390625 -0.929687,0.273437 -3.085937,0.570313 -6.46875,0.890625 -1.855469,0.21875 -5.402344,0.328125 -10.640625,0.328125 -1.648438,0 -5.089844,-0.02344 -10.328125,-0.07813 C 15.554688,-16.675785 12.5,-16.867193 11.625,-17.20313 c -0.4375,-0.21875 -0.742188,-1.085937 -0.90625,-2.609375 -0.15625,-1.53125 -0.292969,-4.644531 -0.40625,-9.34375 -0.324219,-7.425781 -0.484375,-20.828125 -0.484375,-40.203125 0,-19.382813 0.109375,-30.113281 0.328125,-32.18751 0,-0.10156 0.05078,-0.21093 0.15625,-0.32812 0.113281,-1.63281 0.660156,-2.58593 1.640625,-2.85938 0.988281,-0.26953 4.320313,-0.625 10,-1.0625 0.539063,-0.11328 0.972656,-0.17187 1.296875,-0.17187 6.445312,-0.53906 10.925781,-0.92188 13.4375,-1.14063 z m 16.875,19.98438 c -1.429688,-0.769531 -2.714844,-1.207031 -3.859375,-1.3125 -1.148437,-0.113281 -3.085937,-0.222656 -5.8125,-0.328125 -1.417969,-0.113281 -2.726563,-0.171875 -3.921875,-0.171875 -3.28125,0 -6.230469,0.21875 -8.84375,0.65625 -0.875,0.21875 -1.453125,0.4375 -1.734375,0.65625 -0.273437,0.21875 -0.460937,0.765625 -0.5625,1.640625 C 28.492188,-84.566406 28.21875,-75.613281 28,-59.125 l -0.328125,24.734375 h 7.546875 c 8.945312,0 15.601562,-1.691406 19.96875,-5.078125 4.375,-3.382812 7.269531,-9.0625 8.6875,-17.03125 0.4375,-2.726562 0.65625,-5.347656 0.65625,-7.859375 0,-5.789063 -1.203125,-11.035156 -3.609375,-15.734375 -1.09375,-1.957031 -2.054687,-3.347656 -2.875,-4.171875 -0.8125,-0.820313 -2.308594,-1.773437 -4.484375,-2.859375 z m 0,0"
           id="path25" />
      </g>
    </g>
  </g>
  <g
     fill="#0a8f2a"
     fill-opacity="1"
     id="g31"
     transform="translate(-432.59042,-324.96723)">
    <g
       transform="translate(850.54804,463.85786)"
       id="g30">
      <g
         id="g29">
        <path
           d="m 61.90625,-109.40625 c 0.4375,0 1.035156,-0.0508 1.796875,-0.15625 1.207031,-0.11328 2,-0.22266 2.375,-0.32813 0.382813,-0.11328 0.6875,-0.17187 0.90625,-0.17187 0.332031,0 0.742187,0.0586 1.234375,0.17187 0.488281,0.10547 0.8125,0.1875 0.96875,0.25 0.164062,0.0547 0.46875,0.32422 0.90625,0.8125 0.4375,0.49219 0.738281,0.92969 0.90625,1.3125 0.164062,0.375 0.519531,1.0586 1.0625,2.04688 0.21875,0.54297 0.382812,0.97656 0.5,1.29687 1.738281,3.5 2.769531,5.773442 3.09375,6.812505 0.332031,1.03125 0.5,1.820313 0.5,2.359375 0,0.65625 -0.164062,1.203125 -0.484375,1.640625 -0.335937,0.4375 -1.570313,0.765625 -3.703125,0.984375 -2.125,0.21875 -6.789062,0.496094 -13.984375,0.828125 -11.90625,0.542969 -19.386719,0.921875 -22.4375,1.140625 l -5.578125,0.484375 -0.15625,9.5 c 0,2.625 -0.03125,4.375 -0.09375,5.25 -0.05469,0.875 -0.07813,1.476563 -0.07813,1.796875 0,0.980469 0.109375,1.828125 0.328125,2.546875 0.21875,0.710937 0.460938,1.121094 0.734375,1.234375 0.28125,0.105469 0.53125,0.15625 0.75,0.15625 0.21875,0 0.429687,0 0.640625,0 1.75,-0.550781 6.390625,-1.046875 13.921875,-1.484375 3.0625,-0.21875 6.832031,-0.597656 11.3125,-1.140625 5.019531,-0.65625 7.96875,-0.984375 8.84375,-0.984375 0.757813,0 1.6875,0.984375 2.78125,2.953125 1.09375,1.960938 1.9375,3.949219 2.53125,5.96875 0.601563,2.023438 0.90625,3.527344 0.90625,4.515625 0,0.542969 -0.05469,0.976563 -0.15625,1.296875 -0.117187,0.875 -0.558594,1.398438 -1.328125,1.5625 -0.761719,0.167969 -3.214844,0.304688 -7.359375,0.40625 0,0 -0.05469,0 -0.15625,0 -6.449219,0.335938 -13.742187,0.828125 -21.875,1.484375 -8.136719,0.648437 -12.3125,1.136719 -12.53125,1.46875 -0.21875,0.324219 -0.492187,3.929687 -0.8125,10.8125 l -0.5,9.5 2.796875,-0.5 c 2.289062,-0.21875 8.019531,-0.546875 17.1875,-0.984375 8.519531,-0.320312 14.144531,-0.648438 16.875,-0.984375 0,0 0.953125,-0.07813 2.859375,-0.234375 1.914063,-0.164062 3.363281,-0.304688 4.34375,-0.421875 l 4.75,-0.3125 2.296875,4.734375 c 1.09375,2.523438 1.910156,4.902344 2.453125,7.140625 0.539063,2.230469 0.8125,3.78125 0.8125,4.65625 0,0.65625 -0.105469,1.09375 -0.3125,1.3125 -0.335937,0.4375 -8.417969,0.765625 -24.25,0.984375 -15.835937,0.324219 -25.664063,0.652344 -29.484375,0.984375 -4.148438,0.4375 -7.367188,0.65625 -9.65625,0.65625 -1.75,0 -2.902344,-0.08203 -3.453125,-0.25 -0.542969,-0.164063 -1.085937,-0.628906 -1.625,-1.390625 -1.3125,-1.96875 -2.027344,-4.316406 -2.140625,-7.046875 -0.105469,-2.726563 -0.15625,-4.859375 -0.15625,-6.390625 0,-6.113281 0.273438,-17.140625 0.828125,-33.078125 0.320313,-10.476563 0.484375,-17.519531 0.484375,-21.125 0,-0.550781 -0.02734,-1.644531 -0.07813,-3.28125 -0.05469,-1.632813 -0.40625,-3.546875 -1.0625,-5.734375 -0.773437,-2.394531 -1.183594,-4.273438 -1.234375,-5.640625 -0.054688,-1.363285 -0.078125,-2.156255 -0.078125,-2.375005 0,-1.75 0.269531,-2.73437 0.8125,-2.95312 0.875,-0.21875 13.429687,-1.20313 37.671875,-2.95313 6.332031,-0.32031 10.863281,-0.70312 13.59375,-1.14062 z m 0,0"
           id="path28" />
      </g>
    </g>
  </g>
  <g
     fill="#000000"
     fill-opacity="0.4"
     id="g34"
     transform="translate(-432.59042,-324.96723)">
    <g
       transform="translate(951.93824,430.94729)"
       id="g33">
      <g
         id="g32">
        <path
           d="m 32.625,-58.6875 c 0.8125,-0.269531 2.082031,-0.363281 3.8125,-0.28125 1.632812,0 3.335938,0.257812 5.109375,0.765625 1.78125,0.5 3.035156,1.617187 3.765625,3.34375 0.269531,0.449219 0.40625,1.152344 0.40625,2.109375 0,0.960938 -0.183594,1.890625 -0.546875,2.796875 -0.179687,0.460937 -0.40625,1.121094 -0.6875,1.984375 -0.273437,0.867188 -0.632813,1.933594 -1.078125,3.203125 -0.460938,1.273437 -0.78125,2.25 -0.96875,2.9375 -0.179688,0.679687 -0.3125,1.109375 -0.40625,1.296875 0.09375,0.636719 0.367188,0.859375 0.828125,0.671875 0.09375,0 0.410156,-0.06641 0.953125,-0.203125 0.539062,-0.132812 1.128906,-0.269531 1.765625,-0.40625 0.644531,-0.132812 1.238281,-0.25 1.78125,-0.34375 0.539063,-0.09375 0.859375,-0.140625 0.953125,-0.140625 0.1875,0 0.550781,-0.08594 1.09375,-0.265625 0.269531,-0.269531 1.632812,-0.632812 4.09375,-1.09375 0.1875,0 0.570312,-0.03906 1.15625,-0.125 0.59375,-0.09375 1.390625,-0.234375 2.390625,-0.421875 0.457031,-0.09375 1.09375,-0.160156 1.90625,-0.203125 0.820313,-0.03906 1.78125,-0.0625 2.875,-0.0625 2.1875,0 3.320313,0.136719 3.40625,0.40625 0.28125,0.273438 0.28125,0.40625 0,0.40625 -0.367187,0 -0.820313,0.230469 -1.359375,0.6875 -0.542969,0.449219 -1.042969,0.96875 -1.5,1.5625 -0.460938,0.59375 -0.890625,1.210938 -1.296875,1.84375 -0.40625,0.636719 -0.65625,1.136719 -0.75,1.5 -0.273437,1.460938 -0.570313,2.6875 -0.890625,3.6875 -0.3125,1 -0.746094,1.824219 -1.296875,2.46875 -0.542969,0.636719 -1.246094,1.136719 -2.109375,1.5 -0.867188,0.355469 -2.074219,0.625 -3.625,0.8125 -0.367188,0.09375 -0.710938,0.140625 -1.03125,0.140625 -0.3125,0 -0.605469,0.04297 -0.875,0.125 -1.554688,0.1875 -2.921875,0.417969 -4.109375,0.6875 -1.179687,0.273437 -2.265625,0.542969 -3.265625,0.8125 l -1.640625,0.421875 c -0.636719,0.179688 -1.046875,0.292969 -1.234375,0.34375 -0.179688,0.04297 -0.265625,0.429688 -0.265625,1.15625 -0.179687,0.542969 -0.3125,1.679688 -0.40625,3.40625 -0.179687,1.273438 -0.3125,2.636719 -0.40625,4.09375 -0.09375,1.460938 -0.1875,3.054688 -0.28125,4.78125 -0.179687,2.636719 -0.496094,4.453125 -0.953125,5.453125 -0.542969,1.09375 -1.265625,1.1875 -2.171875,0.28125 -0.648437,-0.820313 -1.152344,-0.914063 -1.515625,-0.28125 0,0.09375 -0.02344,0.167969 -0.0625,0.21875 -0.04297,0.042969 -0.0625,0.105469 -0.0625,0.1875 -0.09375,0.09375 -0.140625,0.140625 -0.140625,0.140625 -0.09375,0 -0.234375,-0.179688 -0.421875,-0.546875 -0.179688,-0.363281 -0.492188,-0.453125 -0.9375,-0.265625 -0.824219,0.179688 -1.417969,0.132812 -1.78125,-0.140625 -0.273438,-0.269531 -0.453125,-0.585937 -0.546875,-0.953125 -0.09375,-0.363281 -0.140625,-1.363281 -0.140625,-3 0,-2 0.04687,-3.882812 0.140625,-5.65625 0.09375,-1.78125 0.226563,-3.535156 0.40625,-5.265625 0.1875,-0.820313 0.1875,-1.234375 0,-1.234375 0,-0.269531 -1.089844,-0.03906 -3.265625,0.6875 -1.554688,0.460938 -3.058594,0.917969 -4.515625,1.375 -1.449219,0.449219 -2.855469,0.902344 -4.21875,1.359375 -1.09375,0.367187 -2.007813,0.617187 -2.734375,0.75 -0.730469,0.136719 -1.324219,0.25 -1.78125,0.34375 -1.273438,0 -2.617188,-0.410156 -4.03125,-1.234375 C 8.75,-20.882812 7.773438,-21.835938 7.234375,-22.921875 L 6.828125,-23.75 v -1.765625 C 6.910156,-26.160156 7,-26.890625 7.09375,-27.703125 7.1875,-28.523438 7.320312,-29.4375 7.5,-30.4375 c 0.28125,-2.09375 0.421875,-3.410156 0.421875,-3.953125 V -35.21875 L 8.46875,-35.625 c 0.539062,-0.363281 0.859375,-0.679688 0.953125,-0.953125 0.363281,-0.539063 0.863281,-0.859375 1.5,-0.953125 0.539063,-0.1875 1.539063,-0.09766 3,0.265625 1.539063,0.367187 3.316406,0.546875 5.328125,0.546875 1.632812,0 3.335938,-0.06641 5.109375,-0.203125 1.78125,-0.132813 3.488281,-0.335937 5.125,-0.609375 1.269531,-0.1875 2,-0.550781 2.1875,-1.09375 0,-0.175781 0.01953,-0.5625 0.0625,-1.15625 0.03906,-0.59375 0.0625,-1.253906 0.0625,-1.984375 0,-0.726563 0,-1.476563 0,-2.25 0,-0.769531 0,-1.429687 0,-1.984375 -0.273437,-3.09375 -1.179687,-5.003906 -2.71875,-5.734375 -0.554687,-0.363281 -0.78125,-0.863281 -0.6875,-1.5 0.632813,-3 2.046875,-4.816406 4.234375,-5.453125 z m 0,0"
           id="path31" />
      </g>
    </g>
  </g>
  <g
     fill="#000000"
     fill-opacity="0.4"
     id="g37"
     transform="translate(-432.59042,-324.96723)">
    <g
       transform="translate(1037.9191,430.94729)"
       id="g36">
      <g
         id="g35">
        <path
           d="m 32.625,-58.6875 c 0.8125,-0.269531 2.082031,-0.363281 3.8125,-0.28125 1.632812,0 3.335938,0.257812 5.109375,0.765625 1.78125,0.5 3.035156,1.617187 3.765625,3.34375 0.269531,0.449219 0.40625,1.152344 0.40625,2.109375 0,0.960938 -0.183594,1.890625 -0.546875,2.796875 -0.179687,0.460937 -0.40625,1.121094 -0.6875,1.984375 -0.273437,0.867188 -0.632813,1.933594 -1.078125,3.203125 -0.460938,1.273437 -0.78125,2.25 -0.96875,2.9375 -0.179688,0.679687 -0.3125,1.109375 -0.40625,1.296875 0.09375,0.636719 0.367188,0.859375 0.828125,0.671875 0.09375,0 0.410156,-0.06641 0.953125,-0.203125 0.539062,-0.132812 1.128906,-0.269531 1.765625,-0.40625 0.644531,-0.132812 1.238281,-0.25 1.78125,-0.34375 0.539063,-0.09375 0.859375,-0.140625 0.953125,-0.140625 0.1875,0 0.550781,-0.08594 1.09375,-0.265625 0.269531,-0.269531 1.632812,-0.632812 4.09375,-1.09375 0.1875,0 0.570312,-0.03906 1.15625,-0.125 0.59375,-0.09375 1.390625,-0.234375 2.390625,-0.421875 0.457031,-0.09375 1.09375,-0.160156 1.90625,-0.203125 0.820313,-0.03906 1.78125,-0.0625 2.875,-0.0625 2.1875,0 3.320313,0.136719 3.40625,0.40625 0.28125,0.273438 0.28125,0.40625 0,0.40625 -0.367187,0 -0.820313,0.230469 -1.359375,0.6875 -0.542969,0.449219 -1.042969,0.96875 -1.5,1.5625 -0.460938,0.59375 -0.890625,1.210938 -1.296875,1.84375 -0.40625,0.636719 -0.65625,1.136719 -0.75,1.5 -0.273437,1.460938 -0.570313,2.6875 -0.890625,3.6875 -0.3125,1 -0.746094,1.824219 -1.296875,2.46875 -0.542969,0.636719 -1.246094,1.136719 -2.109375,1.5 -0.867188,0.355469 -2.074219,0.625 -3.625,0.8125 -0.367188,0.09375 -0.710938,0.140625 -1.03125,0.140625 -0.3125,0 -0.605469,0.04297 -0.875,0.125 -1.554688,0.1875 -2.921875,0.417969 -4.109375,0.6875 -1.179687,0.273437 -2.265625,0.542969 -3.265625,0.8125 l -1.640625,0.421875 c -0.636719,0.179688 -1.046875,0.292969 -1.234375,0.34375 -0.179688,0.04297 -0.265625,0.429688 -0.265625,1.15625 -0.179687,0.542969 -0.3125,1.679688 -0.40625,3.40625 -0.179687,1.273438 -0.3125,2.636719 -0.40625,4.09375 -0.09375,1.460938 -0.1875,3.054688 -0.28125,4.78125 -0.179687,2.636719 -0.496094,4.453125 -0.953125,5.453125 -0.542969,1.09375 -1.265625,1.1875 -2.171875,0.28125 -0.648437,-0.820313 -1.152344,-0.914063 -1.515625,-0.28125 0,0.09375 -0.02344,0.167969 -0.0625,0.21875 -0.04297,0.042969 -0.0625,0.105469 -0.0625,0.1875 -0.09375,0.09375 -0.140625,0.140625 -0.140625,0.140625 -0.09375,0 -0.234375,-0.179688 -0.421875,-0.546875 -0.179688,-0.363281 -0.492188,-0.453125 -0.9375,-0.265625 -0.824219,0.179688 -1.417969,0.132812 -1.78125,-0.140625 -0.273438,-0.269531 -0.453125,-0.585937 -0.546875,-0.953125 -0.09375,-0.363281 -0.140625,-1.363281 -0.140625,-3 0,-2 0.04687,-3.882812 0.140625,-5.65625 0.09375,-1.78125 0.226563,-3.535156 0.40625,-5.265625 0.1875,-0.820313 0.1875,-1.234375 0,-1.234375 0,-0.269531 -1.089844,-0.03906 -3.265625,0.6875 -1.554688,0.460938 -3.058594,0.917969 -4.515625,1.375 -1.449219,0.449219 -2.855469,0.902344 -4.21875,1.359375 -1.09375,0.367187 -2.007813,0.617187 -2.734375,0.75 -0.730469,0.136719 -1.324219,0.25 -1.78125,0.34375 -1.273438,0 -2.617188,-0.410156 -4.03125,-1.234375 C 8.75,-20.882812 7.773438,-21.835938 7.234375,-22.921875 L 6.828125,-23.75 v -1.765625 C 6.910156,-26.160156 7,-26.890625 7.09375,-27.703125 7.1875,-28.523438 7.320312,-29.4375 7.5,-30.4375 c 0.28125,-2.09375 0.421875,-3.410156 0.421875,-3.953125 V -35.21875 L 8.46875,-35.625 c 0.539062,-0.363281 0.859375,-0.679688 0.953125,-0.953125 0.363281,-0.539063 0.863281,-0.859375 1.5,-0.953125 0.539063,-0.1875 1.539063,-0.09766 3,0.265625 1.539063,0.367187 3.316406,0.546875 5.328125,0.546875 1.632812,0 3.335938,-0.06641 5.109375,-0.203125 1.78125,-0.132813 3.488281,-0.335937 5.125,-0.609375 1.269531,-0.1875 2,-0.550781 2.1875,-1.09375 0,-0.175781 0.01953,-0.5625 0.0625,-1.15625 0.03906,-0.59375 0.0625,-1.253906 0.0625,-1.984375 0,-0.726563 0,-1.476563 0,-2.25 0,-0.769531 0,-1.429687 0,-1.984375 -0.273437,-3.09375 -1.179687,-5.003906 -2.71875,-5.734375 -0.554687,-0.363281 -0.78125,-0.863281 -0.6875,-1.5 0.632813,-3 2.046875,-4.816406 4.234375,-5.453125 z m 0,0"
           id="path34" />
      </g>
    </g>
  </g>
  <g
     fill="#0a8f2a"
     fill-opacity="1"
     id="g40"
     transform="translate(-432.59042,-324.96723)">
    <g
       transform="translate(948.68113,427.69018)"
       id="g39">
      <g
         id="g38">
        <path
           d="m 32.625,-58.6875 c 0.8125,-0.269531 2.082031,-0.363281 3.8125,-0.28125 1.632812,0 3.335938,0.257812 5.109375,0.765625 1.78125,0.5 3.035156,1.617187 3.765625,3.34375 0.269531,0.449219 0.40625,1.152344 0.40625,2.109375 0,0.960938 -0.183594,1.890625 -0.546875,2.796875 -0.179687,0.460937 -0.40625,1.121094 -0.6875,1.984375 -0.273437,0.867188 -0.632813,1.933594 -1.078125,3.203125 -0.460938,1.273437 -0.78125,2.25 -0.96875,2.9375 -0.179688,0.679687 -0.3125,1.109375 -0.40625,1.296875 0.09375,0.636719 0.367188,0.859375 0.828125,0.671875 0.09375,0 0.410156,-0.06641 0.953125,-0.203125 0.539062,-0.132812 1.128906,-0.269531 1.765625,-0.40625 0.644531,-0.132812 1.238281,-0.25 1.78125,-0.34375 0.539063,-0.09375 0.859375,-0.140625 0.953125,-0.140625 0.1875,0 0.550781,-0.08594 1.09375,-0.265625 0.269531,-0.269531 1.632812,-0.632812 4.09375,-1.09375 0.1875,0 0.570312,-0.03906 1.15625,-0.125 0.59375,-0.09375 1.390625,-0.234375 2.390625,-0.421875 0.457031,-0.09375 1.09375,-0.160156 1.90625,-0.203125 0.820313,-0.03906 1.78125,-0.0625 2.875,-0.0625 2.1875,0 3.320313,0.136719 3.40625,0.40625 0.28125,0.273438 0.28125,0.40625 0,0.40625 -0.367187,0 -0.820313,0.230469 -1.359375,0.6875 -0.542969,0.449219 -1.042969,0.96875 -1.5,1.5625 -0.460938,0.59375 -0.890625,1.210938 -1.296875,1.84375 -0.40625,0.636719 -0.65625,1.136719 -0.75,1.5 -0.273437,1.460938 -0.570313,2.6875 -0.890625,3.6875 -0.3125,1 -0.746094,1.824219 -1.296875,2.46875 -0.542969,0.636719 -1.246094,1.136719 -2.109375,1.5 -0.867188,0.355469 -2.074219,0.625 -3.625,0.8125 -0.367188,0.09375 -0.710938,0.140625 -1.03125,0.140625 -0.3125,0 -0.605469,0.04297 -0.875,0.125 -1.554688,0.1875 -2.921875,0.417969 -4.109375,0.6875 -1.179687,0.273437 -2.265625,0.542969 -3.265625,0.8125 l -1.640625,0.421875 c -0.636719,0.179688 -1.046875,0.292969 -1.234375,0.34375 -0.179688,0.04297 -0.265625,0.429688 -0.265625,1.15625 -0.179687,0.542969 -0.3125,1.679688 -0.40625,3.40625 -0.179687,1.273438 -0.3125,2.636719 -0.40625,4.09375 -0.09375,1.460938 -0.1875,3.054688 -0.28125,4.78125 -0.179687,2.636719 -0.496094,4.453125 -0.953125,5.453125 -0.542969,1.09375 -1.265625,1.1875 -2.171875,0.28125 -0.648437,-0.820313 -1.152344,-0.914063 -1.515625,-0.28125 0,0.09375 -0.02344,0.167969 -0.0625,0.21875 -0.04297,0.042969 -0.0625,0.105469 -0.0625,0.1875 -0.09375,0.09375 -0.140625,0.140625 -0.140625,0.140625 -0.09375,0 -0.234375,-0.179688 -0.421875,-0.546875 -0.179688,-0.363281 -0.492188,-0.453125 -0.9375,-0.265625 -0.824219,0.179688 -1.417969,0.132812 -1.78125,-0.140625 -0.273438,-0.269531 -0.453125,-0.585937 -0.546875,-0.953125 -0.09375,-0.363281 -0.140625,-1.363281 -0.140625,-3 0,-2 0.04687,-3.882812 0.140625,-5.65625 0.09375,-1.78125 0.226563,-3.535156 0.40625,-5.265625 0.1875,-0.820313 0.1875,-1.234375 0,-1.234375 0,-0.269531 -1.089844,-0.03906 -3.265625,0.6875 -1.554688,0.460938 -3.058594,0.917969 -4.515625,1.375 -1.449219,0.449219 -2.855469,0.902344 -4.21875,1.359375 -1.09375,0.367187 -2.007813,0.617187 -2.734375,0.75 -0.730469,0.136719 -1.324219,0.25 -1.78125,0.34375 -1.273438,0 -2.617188,-0.410156 -4.03125,-1.234375 C 8.75,-20.882812 7.773438,-21.835938 7.234375,-22.921875 L 6.828125,-23.75 v -1.765625 C 6.910156,-26.160156 7,-26.890625 7.09375,-27.703125 7.1875,-28.523438 7.320312,-29.4375 7.5,-30.4375 c 0.28125,-2.09375 0.421875,-3.410156 0.421875,-3.953125 V -35.21875 L 8.46875,-35.625 c 0.539062,-0.363281 0.859375,-0.679688 0.953125,-0.953125 0.363281,-0.539063 0.863281,-0.859375 1.5,-0.953125 0.539063,-0.1875 1.539063,-0.09766 3,0.265625 1.539063,0.367187 3.316406,0.546875 5.328125,0.546875 1.632812,0 3.335938,-0.06641 5.109375,-0.203125 1.78125,-0.132813 3.488281,-0.335937 5.125,-0.609375 1.269531,-0.1875 2,-0.550781 2.1875,-1.09375 0,-0.175781 0.01953,-0.5625 0.0625,-1.15625 0.03906,-0.59375 0.0625,-1.253906 0.0625,-1.984375 0,-0.726563 0,-1.476563 0,-2.25 0,-0.769531 0,-1.429687 0,-1.984375 -0.273437,-3.09375 -1.179687,-5.003906 -2.71875,-5.734375 -0.554687,-0.363281 -0.78125,-0.863281 -0.6875,-1.5 0.632813,-3 2.046875,-4.816406 4.234375,-5.453125 z m 0,0"
           id="path37" />
      </g>
    </g>
  </g>
  <g
     fill="#0a8f2a"
     fill-opacity="1"
     id="g43"
     transform="translate(-432.59042,-324.96723)">
    <g
       transform="translate(1034.6619,427.69018)"
       id="g42">
      <g
         id="g41">
        <path
           d="m 32.625,-58.6875 c 0.8125,-0.269531 2.082031,-0.363281 3.8125,-0.28125 1.632812,0 3.335938,0.257812 5.109375,0.765625 1.78125,0.5 3.035156,1.617187 3.765625,3.34375 0.269531,0.449219 0.40625,1.152344 0.40625,2.109375 0,0.960938 -0.183594,1.890625 -0.546875,2.796875 -0.179687,0.460937 -0.40625,1.121094 -0.6875,1.984375 -0.273437,0.867188 -0.632813,1.933594 -1.078125,3.203125 -0.460938,1.273437 -0.78125,2.25 -0.96875,2.9375 -0.179688,0.679687 -0.3125,1.109375 -0.40625,1.296875 0.09375,0.636719 0.367188,0.859375 0.828125,0.671875 0.09375,0 0.410156,-0.06641 0.953125,-0.203125 0.539062,-0.132812 1.128906,-0.269531 1.765625,-0.40625 0.644531,-0.132812 1.238281,-0.25 1.78125,-0.34375 0.539063,-0.09375 0.859375,-0.140625 0.953125,-0.140625 0.1875,0 0.550781,-0.08594 1.09375,-0.265625 0.269531,-0.269531 1.632812,-0.632812 4.09375,-1.09375 0.1875,0 0.570312,-0.03906 1.15625,-0.125 0.59375,-0.09375 1.390625,-0.234375 2.390625,-0.421875 0.457031,-0.09375 1.09375,-0.160156 1.90625,-0.203125 0.820313,-0.03906 1.78125,-0.0625 2.875,-0.0625 2.1875,0 3.320313,0.136719 3.40625,0.40625 0.28125,0.273438 0.28125,0.40625 0,0.40625 -0.367187,0 -0.820313,0.230469 -1.359375,0.6875 -0.542969,0.449219 -1.042969,0.96875 -1.5,1.5625 -0.460938,0.59375 -0.890625,1.210938 -1.296875,1.84375 -0.40625,0.636719 -0.65625,1.136719 -0.75,1.5 -0.273437,1.460938 -0.570313,2.6875 -0.890625,3.6875 -0.3125,1 -0.746094,1.824219 -1.296875,2.46875 -0.542969,0.636719 -1.246094,1.136719 -2.109375,1.5 -0.867188,0.355469 -2.074219,0.625 -3.625,0.8125 -0.367188,0.09375 -0.710938,0.140625 -1.03125,0.140625 -0.3125,0 -0.605469,0.04297 -0.875,0.125 -1.554688,0.1875 -2.921875,0.417969 -4.109375,0.6875 -1.179687,0.273437 -2.265625,0.542969 -3.265625,0.8125 l -1.640625,0.421875 c -0.636719,0.179688 -1.046875,0.292969 -1.234375,0.34375 -0.179688,0.04297 -0.265625,0.429688 -0.265625,1.15625 -0.179687,0.542969 -0.3125,1.679688 -0.40625,3.40625 -0.179687,1.273438 -0.3125,2.636719 -0.40625,4.09375 -0.09375,1.460938 -0.1875,3.054688 -0.28125,4.78125 -0.179687,2.636719 -0.496094,4.453125 -0.953125,5.453125 -0.542969,1.09375 -1.265625,1.1875 -2.171875,0.28125 -0.648437,-0.820313 -1.152344,-0.914063 -1.515625,-0.28125 0,0.09375 -0.02344,0.167969 -0.0625,0.21875 -0.04297,0.042969 -0.0625,0.105469 -0.0625,0.1875 -0.09375,0.09375 -0.140625,0.140625 -0.140625,0.140625 -0.09375,0 -0.234375,-0.179688 -0.421875,-0.546875 -0.179688,-0.363281 -0.492188,-0.453125 -0.9375,-0.265625 -0.824219,0.179688 -1.417969,0.132812 -1.78125,-0.140625 -0.273438,-0.269531 -0.453125,-0.585937 -0.546875,-0.953125 -0.09375,-0.363281 -0.140625,-1.363281 -0.140625,-3 0,-2 0.04687,-3.882812 0.140625,-5.65625 0.09375,-1.78125 0.226563,-3.535156 0.40625,-5.265625 0.1875,-0.820313 0.1875,-1.234375 0,-1.234375 0,-0.269531 -1.089844,-0.03906 -3.265625,0.6875 -1.554688,0.460938 -3.058594,0.917969 -4.515625,1.375 -1.449219,0.449219 -2.855469,0.902344 -4.21875,1.359375 -1.09375,0.367187 -2.007813,0.617187 -2.734375,0.75 -0.730469,0.136719 -1.324219,0.25 -1.78125,0.34375 -1.273438,0 -2.617188,-0.410156 -4.03125,-1.234375 C 8.75,-20.882812 7.773438,-21.835938 7.234375,-22.921875 L 6.828125,-23.75 v -1.765625 C 6.910156,-26.160156 7,-26.890625 7.09375,-27.703125 7.1875,-28.523438 7.320312,-29.4375 7.5,-30.4375 c 0.28125,-2.09375 0.421875,-3.410156 0.421875,-3.953125 V -35.21875 L 8.46875,-35.625 c 0.539062,-0.363281 0.859375,-0.679688 0.953125,-0.953125 0.363281,-0.539063 0.863281,-0.859375 1.5,-0.953125 0.539063,-0.1875 1.539063,-0.09766 3,0.265625 1.539063,0.367187 3.316406,0.546875 5.328125,0.546875 1.632812,0 3.335938,-0.06641 5.109375,-0.203125 1.78125,-0.132813 3.488281,-0.335937 5.125,-0.609375 1.269531,-0.1875 2,-0.550781 2.1875,-1.09375 0,-0.175781 0.01953,-0.5625 0.0625,-1.15625 0.03906,-0.59375 0.0625,-1.253906 0.0625,-1.984375 0,-0.726563 0,-1.476563 0,-2.25 0,-0.769531 0,-1.429687 0,-1.984375 -0.273437,-3.09375 -1.179687,-5.003906 -2.71875,-5.734375 -0.554687,-0.363281 -0.78125,-0.863281 -0.6875,-1.5 0.632813,-3 2.046875,-4.816406 4.234375,-5.453125 z m 0,0"
           id="path40" />
      </g>
    </g>
  </g>
</svg>
