<?xml version="1.0" encoding="UTF-8" standalone="no"?>
<svg
   width="870.31598"
   zoomAndPan="magnify"
   viewBox="0 0 652.73698 120.20821"
   height="160.27762"
   preserveAspectRatio="xMidYMid"
   version="1.0"
   id="svg43"
   sodipodi:docname="logoazule.svg"
   xmlns:inkscape="http://www.inkscape.org/namespaces/inkscape"
   xmlns:sodipodi="http://sodipodi.sourceforge.net/DTD/sodipodi-0.dtd"
   xmlns="http://www.w3.org/2000/svg"
   xmlns:svg="http://www.w3.org/2000/svg">
  <sodipodi:namedview
     id="namedview43"
     pagecolor="#ffffff"
     bordercolor="#000000"
     borderopacity="0.25"
     inkscape:showpageshadow="2"
     inkscape:pageopacity="0.0"
     inkscape:pagecheckerboard="0"
     inkscape:deskcolor="#d1d1d1" />
  <defs
     id="defs1" />
  <g
     fill="#000000"
     fill-opacity="0.4"
     id="g4"
     transform="translate(-446.2803,-329.38703)">
    <g
       transform="translate(443.00411,464.29835)"
       id="g3">
      <g
         id="g2">
        <path
           d="m 31.40625,-100.89063 c 3.40625,-0.82031 7.09375,-1.23437 11.0625,-1.23437 3.976562,0 7.515625,0.51562 10.609375,1.54687 2.0625,0.617192 3.476563,1.156255 4.25,1.625005 0.769531,0.46875 1.570313,1.21875 2.40625,2.25 1.75,2.261719 2.957031,4.453125 3.625,6.578125 0.675781,2.117188 1.015625,3.53125 1.015625,4.25 0,0.929688 -0.261719,1.496094 -0.78125,1.703125 -0.105469,0 -0.261719,0 -0.46875,0 -0.617188,0 -1.335938,-0.207031 -2.15625,-0.625 -1.03125,-0.507813 -3.820312,-1.28125 -8.359375,-2.3125 -3.511719,-0.832031 -6.605469,-1.25 -9.28125,-1.25 -0.105469,0 -0.90625,0.02734 -2.40625,0.07813 -1.492187,0.05469 -3.683594,0.542969 -6.578125,1.46875 -1.855469,0.625 -3.683594,1.609375 -5.484375,2.953125 -1.804687,1.335937 -3.121094,2.671875 -3.953125,4.015625 -0.40625,0.71875 -0.636719,1.234375 -0.6875,1.546875 -0.05469,0.3125 -0.07813,0.574219 -0.07813,0.78125 0,0.40625 0.101563,0.976563 0.3125,1.703125 0.613281,2.261719 1.898437,4.011719 3.859375,5.25 1.957031,1.242188 5.722656,2.789062 11.296875,4.640625 7.945313,2.585937 14.085937,5.632813 18.421875,9.140625 4.332031,3.5 7.164062,7.730469 8.5,12.6875 0.625,1.960938 0.9375,3.761719 0.9375,5.40625 0,0.105469 -0.02734,0.621094 -0.07813,1.546875 -0.05469,0.929687 -0.445313,2.375 -1.171875,4.34375 -1.855469,5.460937 -5.726562,9.839844 -11.609375,13.140625 -5.875,3.304688 -12.371094,4.953125 -19.484375,4.953125 -0.523438,0 -0.984375,0 -1.390625,0 -2.585937,0 -4.601563,-0.203125 -6.046875,-0.609375 -1.4375,-0.414062 -3.496094,-1.191406 -6.171875,-2.328125 -1.761719,-0.71875 -2.796875,-1.128906 -3.109375,-1.234375 -1.125,-0.207031 -2.796875,-1.265625 -5.015625,-3.171875 -2.21875,-1.90625 -3.328125,-3.273437 -3.328125,-4.109375 0,-0.613281 -0.515625,-1.644531 -1.546875,-3.09375 -1.03125,-1.539062 -1.546875,-2.625 -1.546875,-3.25 0,-0.40625 0.253906,-0.609375 0.765625,-0.609375 0,0 0.050781,0 0.15625,0 0.101563,0.105469 0.257813,0.15625 0.46875,0.15625 0.71875,0.199219 1.488281,0.609375 2.3125,1.234375 0.519531,0.40625 0.984375,0.609375 1.390625,0.609375 0.3125,0 1.191406,0.570313 2.640625,1.703125 2.0625,1.554688 4.148437,2.460938 6.265625,2.71875 2.113281,0.25 3.6875,0.375 4.71875,0.375 2.476562,0 5.109375,-0.304688 7.890625,-0.921875 3.613281,-0.71875 6.8125,-1.925781 9.59375,-3.625 2.78125,-1.707031 4.609375,-3.359375 5.484375,-4.953125 0.882812,-1.601562 1.328125,-2.921875 1.328125,-3.953125 0,-0.925781 -0.261719,-1.800781 -0.78125,-2.625 -1.960937,-3.507813 -7.375,-6.660156 -16.25,-9.453125 -7.9375,-2.46875 -13.820313,-5.507812 -17.640625,-9.125 -4.53125,-4.226562 -7.058594,-9.023438 -7.578125,-14.390625 0,-0.507813 0,-0.972656 0,-1.390625 0,-5.050781 2.113281,-9.875 6.34375,-14.46875 4.226563,-4.59375 10.003906,-7.816406 17.328125,-9.671885 z m 0,0"
           id="path2" />
      </g>
    </g>
  </g>
  <g
     fill="#000000"
     fill-opacity="0.4"
     id="g7"
     transform="translate(-446.2803,-329.38703)">
    <g
       transform="translate(532.90174,464.29835)"
       id="g6">
      <g
         id="g5">
        <path
           d="m 43.640625,-71.484375 c -0.835937,-2.6875 -1.296875,-4.03125 -1.390625,-4.03125 -0.105469,0 -1.578125,3.460937 -4.421875,10.375 -2.835937,6.90625 -4.664063,11.390625 -5.484375,13.453125 -0.105469,0.417969 -0.132812,0.679688 -0.07813,0.78125 0.05078,0.105469 0.332031,0.05469 0.84375,-0.15625 0.820313,-0.3125 2.832031,-0.617188 6.03125,-0.921875 6.5,-0.832031 9.492187,-1.660156 8.984375,-2.484375 -0.105469,-0.207031 -0.05469,-0.3125 0.15625,-0.3125 0.101562,0 0.253906,0.05469 0.453125,0.15625 0.625,0.210938 0.9375,-0.09766 0.9375,-0.921875 0,-1.03125 -0.515625,-2.472656 -1.546875,-4.328125 -1.03125,-1.96875 -1.546875,-3.257812 -1.546875,-3.875 0,-0.613281 -0.289063,-1.382812 -0.859375,-2.3125 -0.5625,-0.9375 -1.257812,-2.742188 -2.078125,-5.421875 z M 35.75,-100.10938 c 1.957031,-0.41406 4.351562,-0.64843 7.1875,-0.70312 2.832031,-0.0508 4.816406,0.13281 5.953125,0.54687 0.832031,0.21094 1.425781,0.601568 1.78125,1.17188 0.363281,0.5625 0.800781,1.773438 1.3125,3.625 0.9375,2.992188 3.414063,9.621094 7.4375,19.890625 4.019531,10.261719 6.546875,16.527344 7.578125,18.796875 0.613281,1.03125 1.101562,1.625 1.46875,1.78125 0.363281,0.148438 1.578125,0.21875 3.640625,0.21875 1.957031,0 3.085937,0.05469 3.390625,0.15625 0.3125,0.105469 0.414062,0.515625 0.3125,1.234375 0,1.03125 0.3125,1.808594 0.9375,2.328125 0.3125,0.417969 0.46875,0.730469 0.46875,0.9375 0,0.199219 -0.15625,0.453125 -0.46875,0.765625 -0.523438,0.617187 -1.039062,0.824219 -1.546875,0.625 -0.210937,-0.101563 -0.339844,-0.101563 -0.390625,0 -0.05469,0.09375 -0.02734,0.296875 0.07813,0.609375 0.207031,0.625 0.46875,0.9375 0.78125,0.9375 0.40625,0 0.609375,0.257812 0.609375,0.765625 0,0.417969 -0.71875,0.523437 -2.15625,0.3125 -0.417969,0 -0.757812,0 -1.015625,0 -0.261719,0 -0.46875,0.02734 -0.625,0.07813 -0.148437,0.05469 -0.21875,0.132812 -0.21875,0.234375 0,0.105469 0,0.210937 0,0.3125 0.40625,1.03125 0.816406,2.476563 1.234375,4.328125 0.507812,1.960938 1.898438,5.804688 4.171875,11.53125 2.269531,5.71875 3.664063,8.839844 4.1875,9.359375 0.40625,0.511719 0.53125,1.308594 0.375,2.390625 -0.148437,1.085938 -0.480469,1.679688 -1,1.78125 -0.824219,0.3125 -3.148437,0.46875 -6.96875,0.46875 -3.8125,0 -6.445313,-0.15625 -7.890625,-0.46875 -1.136719,-0.207031 -2.089844,-0.75 -2.859375,-1.625 -0.773437,-0.875 -1.15625,-1.878906 -1.15625,-3.015625 0,-1.03125 -0.210937,-1.648437 -0.625,-1.859375 -0.40625,-0.101562 -0.664063,-0.410156 -0.765625,-0.921875 C 60.757812,-24.242188 60.5,-24.863281 60.1875,-25.375 59.882812,-26 59.679688,-26.773438 59.578125,-27.703125 c 0,-0.925781 -0.261719,-1.539063 -0.78125,-1.84375 -0.617187,-0.414063 -1.027344,-1.914063 -1.234375,-4.5 -0.105469,-0.300781 -0.367188,-0.300781 -0.78125,0 -0.304688,0.210937 -0.453125,0.261719 -0.453125,0.15625 0,-0.101563 0.148437,-0.359375 0.453125,-0.765625 0.519531,-0.625 0.625,-1.035156 0.3125,-1.234375 -0.40625,-0.207031 -0.714844,-0.929687 -0.921875,-2.171875 -0.210937,-0.820312 -0.445313,-1.3125 -0.703125,-1.46875 -0.261719,-0.15625 -0.953125,-0.128906 -2.078125,0.07813 -2.6875,0.40625 -6.25,0.714844 -10.6875,0.921875 -2.78125,0.105469 -4.585937,0.417969 -5.40625,0.9375 -0.835937,0.40625 -2.851563,0.765625 -6.046875,1.078125 -3.199219,0.210937 -4.949219,0.464844 -5.25,0.765625 -0.3125,0.417969 -1.195312,2.585938 -2.640625,6.5 -1.542969,3.929688 -2.777344,6.921875 -3.703125,8.984375 l -1.546875,2.9375 L 13,-17.796875 C 9.695312,-18.003906 7.171875,-18.363281 5.421875,-18.875 c -0.625,-0.207031 -1.042969,-0.390625 -1.25,-0.546875 -0.199219,-0.15625 -0.429687,-0.332031 -0.6875,-0.53125 -0.261719,-0.207031 -0.3125,-0.539063 -0.15625,-1 0.15625,-0.46875 0.332031,-0.984375 0.53125,-1.546875 0.207031,-0.570312 0.519531,-1.425781 0.9375,-2.5625 0.207031,-0.519531 0.722656,-1.785156 1.546875,-3.796875 0.820312,-2.007813 1.492188,-3.582031 2.015625,-4.71875 1.539063,-3.8125 2.519531,-7.367187 2.9375,-10.671875 0.507813,-3.507812 0.867187,-5.421875 1.078125,-5.734375 0.207031,-0.195313 0.671875,-0.03906 1.390625,0.46875 0.3125,0.3125 0.617187,0.265625 0.921875,-0.140625 0.3125,-0.414062 0.882812,-1.503906 1.71875,-3.265625 1.238281,-2.78125 1.859375,-4.429687 1.859375,-4.953125 0,-0.507812 0.148437,-0.765625 0.453125,-0.765625 0.3125,0 0.722656,-0.773437 1.234375,-2.328125 0.832031,-3.195312 1.765625,-5.828125 2.796875,-7.890625 0.40625,-0.71875 1.71875,-4.40625 3.9375,-11.0625 2.21875,-6.65625 3.945312,-11.992187 5.1875,-16.015625 0.613281,-1.75 1.078125,-2.828125 1.390625,-3.234375 0.3125,-0.414063 1.140625,-0.726563 2.484375,-0.937505 z m 0,0"
           id="path4" />
      </g>
    </g>
  </g>
  <g
     fill="#000000"
     fill-opacity="0.4"
     id="g10"
     transform="translate(-446.2803,-329.38703)">
    <g
       transform="translate(633.78515,464.29835)"
       id="g9">
      <g
         id="g8">
        <path
           d="m 65.765625,-99.65625 c 1.539063,-0.195312 3.140625,-0.34766 4.796875,-0.45313 1.132812,-0.10156 2.757812,0.0273 4.875,0.39063 2.113281,0.355469 3.890625,1.152344 5.328125,2.390625 0.625,0.617187 0.960937,1.726563 1.015625,3.328125 0.05078,1.59375 0.07813,2.601562 0.07813,3.015625 0,2.375 -0.210937,4.953125 -0.625,7.734375 -1.242187,7.84375 -1.859375,18.523438 -1.859375,32.03125 0,3.917969 0,7.011719 0,9.28125 0,2.375 0.02344,4.105469 0.07813,5.1875 0.05078,1.085938 0.234375,1.984375 0.546875,2.703125 0.207031,0.417969 0.3125,0.730469 0.3125,0.9375 0,0.304687 -0.15625,0.507813 -0.46875,0.609375 -0.210938,0.105469 -0.3125,0.261719 -0.3125,0.46875 0,0.3125 0.207031,0.671875 0.625,1.078125 0.71875,1.867187 1.179688,2.796875 1.390625,2.796875 h 0.609375 l 0.625,4.171875 c 0,0.71875 0.257812,1.960937 0.78125,3.71875 0.71875,1.855469 1.078125,2.992187 1.078125,3.40625 0,0.40625 -0.308594,0.820313 -0.921875,1.234375 -0.523438,0.40625 -2.277344,0.609375 -5.265625,0.609375 -0.625,0 -1.296875,0 -2.015625,0 -2.78125,-0.09375 -4.589844,-0.242187 -5.421875,-0.453125 -0.824219,-0.207031 -1.804687,-0.722656 -2.9375,-1.546875 -1.335937,-1.132813 -2.671875,-2.863281 -4.015625,-5.1875 -1.34375,-2.320313 -2.53125,-4.875 -3.5625,-7.65625 l -1.234375,-4.03125 -2.171875,4.34375 c -1.242188,2.574219 -2.636719,4.890625 -4.1875,6.953125 -1.542969,2.0625 -2.980469,3.558594 -4.3125,4.484375 -2.273438,1.554687 -4.621094,2.484375 -7.046875,2.796875 -2.429687,0.304688 -4.261719,0.453125 -5.5,0.453125 -2.261719,0 -4.476563,-0.304687 -6.640625,-0.921875 -5.992188,-1.550781 -10.507812,-4.644531 -13.546875,-9.28125 -3.042969,-4.644531 -5.027344,-11.554688 -5.953125,-20.734375 -0.417969,-3.195313 -0.625,-11.472656 -0.625,-24.828125 0,-13.363281 0.15625,-21.335938 0.46875,-23.921875 0.207031,-1.539063 0.4375,-2.519531 0.6875,-2.9375 0.257812,-0.414063 0.753906,-0.722656 1.484375,-0.921875 1.4375,-0.414062 3.550781,-0.625 6.34375,-0.625 0.300781,0 0.609375,0 0.921875,0 2.164062,0 4.226562,0.339844 6.1875,1.015625 1.957031,0.667969 3.195312,1.515625 3.71875,2.546875 0.207031,0.3125 0.3125,0.933594 0.3125,1.859375 0,1.335937 -0.210938,3.398437 -0.625,6.1875 -0.617188,4.542969 -0.949219,9.496094 -1,14.859375 -0.05469,5.355469 -0.07813,8.449219 -0.07813,9.28125 0,8.460938 0.253906,14.390625 0.765625,17.796875 0.820312,5.5625 2.03125,9.507813 3.625,11.828125 1.601562,2.324219 3.644531,3.484375 6.125,3.484375 2.164062,0 4.070312,-0.742187 5.71875,-2.234375 1.65625,-1.5 3.359375,-3.742188 5.109375,-6.734375 2.0625,-3.507813 3.6875,-6.914063 4.875,-10.21875 1.1875,-3.300781 2.472656,-7.066406 3.859375,-11.296875 1.394531,-4.226562 2.816406,-12.117188 4.265625,-23.671875 0.207031,-1.957031 0.363281,-4.382813 0.46875,-7.28125 0.207031,-4.53125 0.410156,-6.898437 0.609375,-7.109375 0.414062,-0.414062 1.296875,-0.726562 2.640625,-0.9375 z m -19.03125,-30.17187 c 0.613281,-0.71875 1.097656,-1.12891 1.453125,-1.23438 0.363281,-0.10156 0.703125,-0.15625 1.015625,-0.15625 0.3125,0 0.570313,0 0.78125,0 1.539063,0.21094 3.054687,0.80469 4.546875,1.78125 1.5,0.98047 2.507812,1.98437 3.03125,3.01562 l 0.921875,1.70313 L 54,-120.53125 c -1.855469,1.75 -3.148438,2.96484 -3.875,3.64062 -0.71875,0.66797 -1.621094,1.4375 -2.703125,2.3125 -1.085937,0.875 -1.757813,1.39063 -2.015625,1.54688 -0.25,0.15625 -0.792969,0.36719 -1.625,0.625 -0.824219,0.25 -1.417969,0.375 -1.78125,0.375 -0.355469,0 -1.046875,0 -2.078125,0 -3.09375,0 -4.746094,-0.10156 -4.953125,-0.3125 0,0 0,-0.0469 0,-0.14063 0,-0.72656 1.414062,-3.20703 4.25,-7.4375 2.84375,-4.22656 5.347656,-7.53125 7.515625,-9.90624 z m 0,0"
           id="path7" />
      </g>
    </g>
  </g>
  <g
     fill="#000000"
     fill-opacity="0.4"
     id="g13"
     transform="translate(-446.2803,-329.38703)">
    <g
       transform="translate(743.17866,464.29835)"
       id="g12">
      <g
         id="g11">
        <path
           d="m 34.65625,-101.20313 c 1.957031,-0.19531 3.816406,-0.29687 5.578125,-0.29687 3.601563,0 7.363281,0.51562 11.28125,1.546875 3.925781,1.03125 8.054687,3.09375 12.390625,6.1875 3.707031,2.679687 6.925781,6.289063 9.65625,10.828125 2.738281,4.542969 4.421875,9.183594 5.046875,13.921875 0.101563,1.449219 0.253906,2.6875 0.453125,3.71875 0.101562,0.417969 0.15625,0.933594 0.15625,1.546875 0,1.449219 -0.152344,3.511719 -0.453125,6.1875 -0.3125,3.8125 -1.167969,7.859375 -2.5625,12.140625 -1.386719,4.28125 -2.960937,7.714844 -4.71875,10.296875 -2.0625,3.199219 -4.980469,6.398438 -8.75,9.59375 -3.761719,3.199219 -6.828125,5.15625 -9.203125,5.875 -1.4375,0.523438 -2.882812,1.039062 -4.328125,1.546875 -1.542969,0.625 -2.757813,1.070313 -3.640625,1.328125 -0.875,0.25 -2.914062,0.53125 -6.109375,0.84375 -1.75,0.210938 -5.101563,0.3125 -10.046875,0.3125 -1.554688,0 -4.808594,-0.02344 -9.765625,-0.07813 -4.949219,-0.05078 -7.835937,-0.234375 -8.65625,-0.546875 -0.40625,-0.207031 -0.6875,-1.03125 -0.84375,-2.46875 C 9.984375,-20.164062 9.851562,-23.109375 9.75,-27.546875 9.4375,-34.554688 9.28125,-47.21875 9.28125,-65.53125 c 0,-18.3125 0.101562,-28.445312 0.3125,-30.40625 0,-0.101562 0.050781,-0.207031 0.15625,-0.3125 0.101562,-1.539062 0.617188,-2.441406 1.546875,-2.703125 0.925781,-0.257813 4.070313,-0.59375 9.4375,-1 0.519531,-0.101565 0.929687,-0.156255 1.234375,-0.156255 6.09375,-0.51953 10.320312,-0.88281 12.6875,-1.09375 z m 15.9375,18.89063 c -1.335938,-0.726562 -2.542969,-1.144531 -3.625,-1.25 -1.085938,-0.101562 -2.917969,-0.203125 -5.5,-0.296875 -1.34375,-0.101563 -2.585938,-0.15625 -3.71875,-0.15625 -3.09375,0 -5.875,0.203125 -8.34375,0.609375 -0.835938,0.210938 -1.382812,0.417969 -1.640625,0.625 -0.25,0.210938 -0.429687,0.726562 -0.53125,1.546875 -0.3125,1.34375 -0.574219,9.804687 -0.78125,25.375 L 26.15625,-32.5 h 7.109375 c 8.457031,0 14.75,-1.597656 18.875,-4.796875 4.125,-3.195313 6.859375,-8.5625 8.203125,-16.09375 0.414062,-2.570313 0.625,-5.046875 0.625,-7.421875 0,-5.46875 -1.136719,-10.421875 -3.40625,-14.859375 -1.03125,-1.851563 -1.9375,-3.164063 -2.71875,-3.9375 -0.773438,-0.769531 -2.1875,-1.671875 -4.25,-2.703125 z m 0,0"
           id="path10" />
      </g>
    </g>
  </g>
  <g
     fill="#000000"
     fill-opacity="0.4"
     id="g16"
     transform="translate(-446.2803,-329.38703)">
    <g
       transform="translate(844.83572,464.29835)"
       id="g15">
      <g
         id="g14">
        <path
           d="m 58.484375,-103.35938 c 0.414063,0 0.984375,-0.0508 1.703125,-0.15625 1.132812,-0.10156 1.882812,-0.20703 2.25,-0.3125 0.363281,-0.10156 0.644531,-0.15625 0.84375,-0.15625 0.3125,0 0.695312,0.0547 1.15625,0.15625 0.46875,0.10547 0.78125,0.1836 0.9375,0.23438 0.15625,0.0547 0.4375,0.3125 0.84375,0.78125 0.414062,0.46094 0.703125,0.87109 0.859375,1.23437 0.15625,0.35547 0.488281,0.9961 1,1.92188 0.207031,0.523438 0.363281,0.9375 0.46875,1.25 1.644531,3.304688 2.625,5.445312 2.9375,6.421875 0.3125,0.980469 0.46875,1.726563 0.46875,2.234375 0,0.625 -0.15625,1.140625 -0.46875,1.546875 -0.3125,0.417969 -1.476563,0.730469 -3.484375,0.9375 -2.011719,0.210937 -6.417969,0.464844 -13.21875,0.765625 -11.25,0.523438 -18.320312,0.886719 -21.203125,1.09375 l -5.265625,0.453125 -0.15625,8.984375 c 0,2.46875 -0.02734,4.121094 -0.07813,4.953125 -0.05469,0.824219 -0.07813,1.386719 -0.07813,1.6875 0,0.9375 0.101562,1.742187 0.3125,2.40625 0.207031,0.667969 0.441406,1.054687 0.703125,1.15625 0.257813,0.105469 0.488281,0.15625 0.6875,0.15625 0.207031,0 0.414063,0 0.625,0 1.644531,-0.507813 6.03125,-0.972656 13.15625,-1.390625 2.882813,-0.207031 6.441406,-0.566406 10.671875,-1.078125 4.75,-0.625 7.535156,-0.9375 8.359375,-0.9375 0.71875,0 1.59375,0.933594 2.625,2.796875 1.03125,1.855469 1.828125,3.734375 2.390625,5.640625 0.570312,1.90625 0.859375,3.324219 0.859375,4.25 0,0.523437 -0.05469,0.9375 -0.15625,1.25 -0.105469,0.824219 -0.515625,1.3125 -1.234375,1.46875 -0.71875,0.148437 -3.042969,0.273437 -6.96875,0.375 0,0 -0.05469,0 -0.15625,0 -6.085938,0.3125 -12.96875,0.78125 -20.65625,1.40625 -7.679688,0.617187 -11.621094,1.078125 -11.828125,1.390625 -0.210937,0.304688 -0.46875,3.703125 -0.78125,10.203125 L 26.15625,-31.25 l 2.625,-0.46875 c 2.164062,-0.207031 7.582031,-0.519531 16.25,-0.9375 8.039062,-0.300781 13.351562,-0.609375 15.9375,-0.921875 0,0 0.898438,-0.07813 2.703125,-0.234375 1.800781,-0.15625 3.171875,-0.285156 4.109375,-0.390625 L 72.265625,-34.5 l 2.15625,4.484375 c 1.03125,2.375 1.800781,4.621094 2.3125,6.734375 0.519531,2.117188 0.78125,3.585938 0.78125,4.40625 0,0.617188 -0.101563,1.027344 -0.296875,1.234375 -0.3125,0.417969 -7.949219,0.726563 -22.90625,0.921875 -14.960938,0.3125 -24.246094,0.625 -27.859375,0.9375 -3.917969,0.417969 -6.960937,0.625 -9.125,0.625 -1.648437,0 -2.730469,-0.07813 -3.25,-0.234375 -0.511719,-0.15625 -1.027344,-0.597656 -1.546875,-1.328125 -1.242188,-1.851562 -1.914062,-4.066406 -2.015625,-6.640625 -0.09375,-2.582031 -0.140625,-4.597656 -0.140625,-6.046875 0,-5.769531 0.253906,-16.1875 0.765625,-31.25 0.3125,-9.90625 0.46875,-16.554688 0.46875,-19.953125 0,-0.519531 -0.02734,-1.550781 -0.07813,-3.09375 -0.05469,-1.550781 -0.390625,-3.359375 -1.015625,-5.421875 -0.71875,-2.269531 -1.105469,-4.050781 -1.15625,-5.34375 -0.054687,-1.289062 -0.078125,-2.035156 -0.078125,-2.234375 0,-1.65625 0.257812,-2.585937 0.78125,-2.796875 0.820312,-0.195312 12.679688,-1.125 35.578125,-2.78125 5.988281,-0.3125 10.269531,-0.67188 12.84375,-1.07813 z m 0,0"
           id="path13" />
      </g>
    </g>
  </g>
  <g
     fill="#38b6ff"
     fill-opacity="1"
     id="g19"
     transform="translate(-446.2803,-329.38703)">
    <g
       transform="translate(439.31153,460.60577)"
       id="g18">
      <g
         id="g17">
        <path
           d="m 31.40625,-100.89063 c 3.40625,-0.82031 7.09375,-1.23437 11.0625,-1.23437 3.976562,0 7.515625,0.51562 10.609375,1.54687 2.0625,0.617192 3.476563,1.156255 4.25,1.625005 0.769531,0.46875 1.570313,1.21875 2.40625,2.25 1.75,2.261719 2.957031,4.453125 3.625,6.578125 0.675781,2.117188 1.015625,3.53125 1.015625,4.25 0,0.929688 -0.261719,1.496094 -0.78125,1.703125 -0.105469,0 -0.261719,0 -0.46875,0 -0.617188,0 -1.335938,-0.207031 -2.15625,-0.625 -1.03125,-0.507813 -3.820312,-1.28125 -8.359375,-2.3125 -3.511719,-0.832031 -6.605469,-1.25 -9.28125,-1.25 -0.105469,0 -0.90625,0.02734 -2.40625,0.07813 -1.492187,0.05469 -3.683594,0.542969 -6.578125,1.46875 -1.855469,0.625 -3.683594,1.609375 -5.484375,2.953125 -1.804687,1.335937 -3.121094,2.671875 -3.953125,4.015625 -0.40625,0.71875 -0.636719,1.234375 -0.6875,1.546875 -0.05469,0.3125 -0.07813,0.574219 -0.07813,0.78125 0,0.40625 0.101563,0.976563 0.3125,1.703125 0.613281,2.261719 1.898437,4.011719 3.859375,5.25 1.957031,1.242188 5.722656,2.789062 11.296875,4.640625 7.945313,2.585937 14.085937,5.632813 18.421875,9.140625 4.332031,3.5 7.164062,7.730469 8.5,12.6875 0.625,1.960938 0.9375,3.761719 0.9375,5.40625 0,0.105469 -0.02734,0.621094 -0.07813,1.546875 -0.05469,0.929687 -0.445313,2.375 -1.171875,4.34375 -1.855469,5.460937 -5.726562,9.839844 -11.609375,13.140625 -5.875,3.304688 -12.371094,4.953125 -19.484375,4.953125 -0.523438,0 -0.984375,0 -1.390625,0 -2.585937,0 -4.601563,-0.203125 -6.046875,-0.609375 -1.4375,-0.414062 -3.496094,-1.191406 -6.171875,-2.328125 -1.761719,-0.71875 -2.796875,-1.128906 -3.109375,-1.234375 -1.125,-0.207031 -2.796875,-1.265625 -5.015625,-3.171875 -2.21875,-1.90625 -3.328125,-3.273437 -3.328125,-4.109375 0,-0.613281 -0.515625,-1.644531 -1.546875,-3.09375 -1.03125,-1.539062 -1.546875,-2.625 -1.546875,-3.25 0,-0.40625 0.253906,-0.609375 0.765625,-0.609375 0,0 0.050781,0 0.15625,0 0.101563,0.105469 0.257813,0.15625 0.46875,0.15625 0.71875,0.199219 1.488281,0.609375 2.3125,1.234375 0.519531,0.40625 0.984375,0.609375 1.390625,0.609375 0.3125,0 1.191406,0.570313 2.640625,1.703125 2.0625,1.554688 4.148437,2.460938 6.265625,2.71875 2.113281,0.25 3.6875,0.375 4.71875,0.375 2.476562,0 5.109375,-0.304688 7.890625,-0.921875 3.613281,-0.71875 6.8125,-1.925781 9.59375,-3.625 2.78125,-1.707031 4.609375,-3.359375 5.484375,-4.953125 0.882812,-1.601562 1.328125,-2.921875 1.328125,-3.953125 0,-0.925781 -0.261719,-1.800781 -0.78125,-2.625 -1.960937,-3.507813 -7.375,-6.660156 -16.25,-9.453125 -7.9375,-2.46875 -13.820313,-5.507812 -17.640625,-9.125 -4.53125,-4.226562 -7.058594,-9.023438 -7.578125,-14.390625 0,-0.507813 0,-0.972656 0,-1.390625 0,-5.050781 2.113281,-9.875 6.34375,-14.46875 4.226563,-4.59375 10.003906,-7.816406 17.328125,-9.671885 z m 0,0"
           id="path16" />
      </g>
    </g>
  </g>
  <g
     fill="#38b6ff"
     fill-opacity="1"
     id="g22"
     transform="translate(-446.2803,-329.38703)">
    <g
       transform="translate(529.20916,460.60577)"
       id="g21">
      <g
         id="g20">
        <path
           d="m 43.640625,-71.484375 c -0.835937,-2.6875 -1.296875,-4.03125 -1.390625,-4.03125 -0.105469,0 -1.578125,3.460937 -4.421875,10.375 -2.835937,6.90625 -4.664063,11.390625 -5.484375,13.453125 -0.105469,0.417969 -0.132812,0.679688 -0.07813,0.78125 0.05078,0.105469 0.332031,0.05469 0.84375,-0.15625 0.820313,-0.3125 2.832031,-0.617188 6.03125,-0.921875 6.5,-0.832031 9.492187,-1.660156 8.984375,-2.484375 -0.105469,-0.207031 -0.05469,-0.3125 0.15625,-0.3125 0.101562,0 0.253906,0.05469 0.453125,0.15625 0.625,0.210938 0.9375,-0.09766 0.9375,-0.921875 0,-1.03125 -0.515625,-2.472656 -1.546875,-4.328125 -1.03125,-1.96875 -1.546875,-3.257812 -1.546875,-3.875 0,-0.613281 -0.289063,-1.382812 -0.859375,-2.3125 -0.5625,-0.9375 -1.257812,-2.742188 -2.078125,-5.421875 z M 35.75,-100.10938 c 1.957031,-0.41406 4.351562,-0.64843 7.1875,-0.70312 2.832031,-0.0508 4.816406,0.13281 5.953125,0.54687 0.832031,0.21094 1.425781,0.601568 1.78125,1.17188 0.363281,0.5625 0.800781,1.773438 1.3125,3.625 0.9375,2.992188 3.414063,9.621094 7.4375,19.890625 4.019531,10.261719 6.546875,16.527344 7.578125,18.796875 0.613281,1.03125 1.101562,1.625 1.46875,1.78125 0.363281,0.148438 1.578125,0.21875 3.640625,0.21875 1.957031,0 3.085937,0.05469 3.390625,0.15625 0.3125,0.105469 0.414062,0.515625 0.3125,1.234375 0,1.03125 0.3125,1.808594 0.9375,2.328125 0.3125,0.417969 0.46875,0.730469 0.46875,0.9375 0,0.199219 -0.15625,0.453125 -0.46875,0.765625 -0.523438,0.617187 -1.039062,0.824219 -1.546875,0.625 -0.210937,-0.101563 -0.339844,-0.101563 -0.390625,0 -0.05469,0.09375 -0.02734,0.296875 0.07813,0.609375 0.207031,0.625 0.46875,0.9375 0.78125,0.9375 0.40625,0 0.609375,0.257812 0.609375,0.765625 0,0.417969 -0.71875,0.523437 -2.15625,0.3125 -0.417969,0 -0.757812,0 -1.015625,0 -0.261719,0 -0.46875,0.02734 -0.625,0.07813 -0.148437,0.05469 -0.21875,0.132812 -0.21875,0.234375 0,0.105469 0,0.210937 0,0.3125 0.40625,1.03125 0.816406,2.476563 1.234375,4.328125 0.507812,1.960938 1.898438,5.804688 4.171875,11.53125 2.269531,5.71875 3.664063,8.839844 4.1875,9.359375 0.40625,0.511719 0.53125,1.308594 0.375,2.390625 -0.148437,1.085938 -0.480469,1.679688 -1,1.78125 -0.824219,0.3125 -3.148437,0.46875 -6.96875,0.46875 -3.8125,0 -6.445313,-0.15625 -7.890625,-0.46875 -1.136719,-0.207031 -2.089844,-0.75 -2.859375,-1.625 -0.773437,-0.875 -1.15625,-1.878906 -1.15625,-3.015625 0,-1.03125 -0.210937,-1.648437 -0.625,-1.859375 -0.40625,-0.101562 -0.664063,-0.410156 -0.765625,-0.921875 C 60.757812,-24.242188 60.5,-24.863281 60.1875,-25.375 59.882812,-26 59.679688,-26.773438 59.578125,-27.703125 c 0,-0.925781 -0.261719,-1.539063 -0.78125,-1.84375 -0.617187,-0.414063 -1.027344,-1.914063 -1.234375,-4.5 -0.105469,-0.300781 -0.367188,-0.300781 -0.78125,0 -0.304688,0.210937 -0.453125,0.261719 -0.453125,0.15625 0,-0.101563 0.148437,-0.359375 0.453125,-0.765625 0.519531,-0.625 0.625,-1.035156 0.3125,-1.234375 -0.40625,-0.207031 -0.714844,-0.929687 -0.921875,-2.171875 -0.210937,-0.820312 -0.445313,-1.3125 -0.703125,-1.46875 -0.261719,-0.15625 -0.953125,-0.128906 -2.078125,0.07813 -2.6875,0.40625 -6.25,0.714844 -10.6875,0.921875 -2.78125,0.105469 -4.585937,0.417969 -5.40625,0.9375 -0.835937,0.40625 -2.851563,0.765625 -6.046875,1.078125 -3.199219,0.210937 -4.949219,0.464844 -5.25,0.765625 -0.3125,0.417969 -1.195312,2.585938 -2.640625,6.5 -1.542969,3.929688 -2.777344,6.921875 -3.703125,8.984375 l -1.546875,2.9375 L 13,-17.796875 C 9.695312,-18.003906 7.171875,-18.363281 5.421875,-18.875 c -0.625,-0.207031 -1.042969,-0.390625 -1.25,-0.546875 -0.199219,-0.15625 -0.429687,-0.332031 -0.6875,-0.53125 -0.261719,-0.207031 -0.3125,-0.539063 -0.15625,-1 0.15625,-0.46875 0.332031,-0.984375 0.53125,-1.546875 0.207031,-0.570312 0.519531,-1.425781 0.9375,-2.5625 0.207031,-0.519531 0.722656,-1.785156 1.546875,-3.796875 0.820312,-2.007813 1.492188,-3.582031 2.015625,-4.71875 1.539063,-3.8125 2.519531,-7.367187 2.9375,-10.671875 0.507813,-3.507812 0.867187,-5.421875 1.078125,-5.734375 0.207031,-0.195313 0.671875,-0.03906 1.390625,0.46875 0.3125,0.3125 0.617187,0.265625 0.921875,-0.140625 0.3125,-0.414062 0.882812,-1.503906 1.71875,-3.265625 1.238281,-2.78125 1.859375,-4.429687 1.859375,-4.953125 0,-0.507812 0.148437,-0.765625 0.453125,-0.765625 0.3125,0 0.722656,-0.773437 1.234375,-2.328125 0.832031,-3.195312 1.765625,-5.828125 2.796875,-7.890625 0.40625,-0.71875 1.71875,-4.40625 3.9375,-11.0625 2.21875,-6.65625 3.945312,-11.992187 5.1875,-16.015625 0.613281,-1.75 1.078125,-2.828125 1.390625,-3.234375 0.3125,-0.414063 1.140625,-0.726563 2.484375,-0.937505 z m 0,0"
           id="path19" />
      </g>
    </g>
  </g>
  <g
     fill="#38b6ff"
     fill-opacity="1"
     id="g25"
     transform="translate(-446.2803,-329.38703)">
    <g
       transform="translate(630.09257,460.60577)"
       id="g24">
      <g
         id="g23">
        <path
           d="m 65.765625,-99.65625 c 1.539063,-0.195312 3.140625,-0.34766 4.796875,-0.45313 1.132812,-0.10156 2.757812,0.0273 4.875,0.39063 2.113281,0.355469 3.890625,1.152344 5.328125,2.390625 0.625,0.617187 0.960937,1.726563 1.015625,3.328125 0.05078,1.59375 0.07813,2.601562 0.07813,3.015625 0,2.375 -0.210937,4.953125 -0.625,7.734375 -1.242187,7.84375 -1.859375,18.523438 -1.859375,32.03125 0,3.917969 0,7.011719 0,9.28125 0,2.375 0.02344,4.105469 0.07813,5.1875 0.05078,1.085938 0.234375,1.984375 0.546875,2.703125 0.207031,0.417969 0.3125,0.730469 0.3125,0.9375 0,0.304687 -0.15625,0.507813 -0.46875,0.609375 -0.210938,0.105469 -0.3125,0.261719 -0.3125,0.46875 0,0.3125 0.207031,0.671875 0.625,1.078125 0.71875,1.867187 1.179688,2.796875 1.390625,2.796875 h 0.609375 l 0.625,4.171875 c 0,0.71875 0.257812,1.960937 0.78125,3.71875 0.71875,1.855469 1.078125,2.992187 1.078125,3.40625 0,0.40625 -0.308594,0.820313 -0.921875,1.234375 -0.523438,0.40625 -2.277344,0.609375 -5.265625,0.609375 -0.625,0 -1.296875,0 -2.015625,0 -2.78125,-0.09375 -4.589844,-0.242187 -5.421875,-0.453125 -0.824219,-0.207031 -1.804687,-0.722656 -2.9375,-1.546875 -1.335937,-1.132813 -2.671875,-2.863281 -4.015625,-5.1875 -1.34375,-2.320313 -2.53125,-4.875 -3.5625,-7.65625 l -1.234375,-4.03125 -2.171875,4.34375 c -1.242188,2.574219 -2.636719,4.890625 -4.1875,6.953125 -1.542969,2.0625 -2.980469,3.558594 -4.3125,4.484375 -2.273438,1.554687 -4.621094,2.484375 -7.046875,2.796875 -2.429687,0.304688 -4.261719,0.453125 -5.5,0.453125 -2.261719,0 -4.476563,-0.304687 -6.640625,-0.921875 -5.992188,-1.550781 -10.507812,-4.644531 -13.546875,-9.28125 -3.042969,-4.644531 -5.027344,-11.554688 -5.953125,-20.734375 -0.417969,-3.195313 -0.625,-11.472656 -0.625,-24.828125 0,-13.363281 0.15625,-21.335938 0.46875,-23.921875 0.207031,-1.539063 0.4375,-2.519531 0.6875,-2.9375 0.257812,-0.414063 0.753906,-0.722656 1.484375,-0.921875 1.4375,-0.414062 3.550781,-0.625 6.34375,-0.625 0.300781,0 0.609375,0 0.921875,0 2.164062,0 4.226562,0.339844 6.1875,1.015625 1.957031,0.667969 3.195312,1.515625 3.71875,2.546875 0.207031,0.3125 0.3125,0.933594 0.3125,1.859375 0,1.335937 -0.210938,3.398437 -0.625,6.1875 -0.617188,4.542969 -0.949219,9.496094 -1,14.859375 -0.05469,5.355469 -0.07813,8.449219 -0.07813,9.28125 0,8.460938 0.253906,14.390625 0.765625,17.796875 0.820312,5.5625 2.03125,9.507813 3.625,11.828125 1.601562,2.324219 3.644531,3.484375 6.125,3.484375 2.164062,0 4.070312,-0.742187 5.71875,-2.234375 1.65625,-1.5 3.359375,-3.742188 5.109375,-6.734375 2.0625,-3.507813 3.6875,-6.914063 4.875,-10.21875 1.1875,-3.300781 2.472656,-7.066406 3.859375,-11.296875 1.394531,-4.226562 2.816406,-12.117188 4.265625,-23.671875 0.207031,-1.957031 0.363281,-4.382813 0.46875,-7.28125 0.207031,-4.53125 0.410156,-6.898437 0.609375,-7.109375 0.414062,-0.414062 1.296875,-0.726562 2.640625,-0.9375 z m -19.03125,-30.17187 c 0.613281,-0.71875 1.097656,-1.12891 1.453125,-1.23438 0.363281,-0.10156 0.703125,-0.15625 1.015625,-0.15625 0.3125,0 0.570313,0 0.78125,0 1.539063,0.21094 3.054687,0.80469 4.546875,1.78125 1.5,0.98047 2.507812,1.98437 3.03125,3.01562 l 0.921875,1.70313 L 54,-120.53125 c -1.855469,1.75 -3.148438,2.96484 -3.875,3.64062 -0.71875,0.66797 -1.621094,1.4375 -2.703125,2.3125 -1.085937,0.875 -1.757813,1.39063 -2.015625,1.54688 -0.25,0.15625 -0.792969,0.36719 -1.625,0.625 -0.824219,0.25 -1.417969,0.375 -1.78125,0.375 -0.355469,0 -1.046875,0 -2.078125,0 -3.09375,0 -4.746094,-0.10156 -4.953125,-0.3125 0,0 0,-0.0469 0,-0.14063 0,-0.72656 1.414062,-3.20703 4.25,-7.4375 2.84375,-4.22656 5.347656,-7.53125 7.515625,-9.90624 z m 0,0"
           id="path22" />
      </g>
    </g>
  </g>
  <g
     fill="#38b6ff"
     fill-opacity="1"
     id="g28"
     transform="translate(-446.2803,-329.38703)">
    <g
       transform="translate(739.48608,460.60577)"
       id="g27">
      <g
         id="g26">
        <path
           d="m 34.65625,-101.20313 c 1.957031,-0.19531 3.816406,-0.29687 5.578125,-0.29687 3.601563,0 7.363281,0.51562 11.28125,1.546875 3.925781,1.03125 8.054687,3.09375 12.390625,6.1875 3.707031,2.679687 6.925781,6.289063 9.65625,10.828125 2.738281,4.542969 4.421875,9.183594 5.046875,13.921875 0.101563,1.449219 0.253906,2.6875 0.453125,3.71875 0.101562,0.417969 0.15625,0.933594 0.15625,1.546875 0,1.449219 -0.152344,3.511719 -0.453125,6.1875 -0.3125,3.8125 -1.167969,7.859375 -2.5625,12.140625 -1.386719,4.28125 -2.960937,7.714844 -4.71875,10.296875 -2.0625,3.199219 -4.980469,6.398438 -8.75,9.59375 -3.761719,3.199219 -6.828125,5.15625 -9.203125,5.875 -1.4375,0.523438 -2.882812,1.039062 -4.328125,1.546875 -1.542969,0.625 -2.757813,1.070313 -3.640625,1.328125 -0.875,0.25 -2.914062,0.53125 -6.109375,0.84375 -1.75,0.210938 -5.101563,0.3125 -10.046875,0.3125 -1.554688,0 -4.808594,-0.02344 -9.765625,-0.07813 -4.949219,-0.05078 -7.835937,-0.234375 -8.65625,-0.546875 -0.40625,-0.207031 -0.6875,-1.03125 -0.84375,-2.46875 C 9.984375,-20.164062 9.851562,-23.109375 9.75,-27.546875 9.4375,-34.554688 9.28125,-47.21875 9.28125,-65.53125 c 0,-18.3125 0.101562,-28.445312 0.3125,-30.40625 0,-0.101562 0.050781,-0.207031 0.15625,-0.3125 0.101562,-1.539062 0.617188,-2.441406 1.546875,-2.703125 0.925781,-0.257813 4.070313,-0.59375 9.4375,-1 0.519531,-0.101565 0.929687,-0.156255 1.234375,-0.156255 6.09375,-0.51953 10.320312,-0.88281 12.6875,-1.09375 z m 15.9375,18.89063 c -1.335938,-0.726562 -2.542969,-1.144531 -3.625,-1.25 -1.085938,-0.101562 -2.917969,-0.203125 -5.5,-0.296875 -1.34375,-0.101563 -2.585938,-0.15625 -3.71875,-0.15625 -3.09375,0 -5.875,0.203125 -8.34375,0.609375 -0.835938,0.210938 -1.382812,0.417969 -1.640625,0.625 -0.25,0.210938 -0.429687,0.726562 -0.53125,1.546875 -0.3125,1.34375 -0.574219,9.804687 -0.78125,25.375 L 26.15625,-32.5 h 7.109375 c 8.457031,0 14.75,-1.597656 18.875,-4.796875 4.125,-3.195313 6.859375,-8.5625 8.203125,-16.09375 0.414062,-2.570313 0.625,-5.046875 0.625,-7.421875 0,-5.46875 -1.136719,-10.421875 -3.40625,-14.859375 -1.03125,-1.851563 -1.9375,-3.164063 -2.71875,-3.9375 -0.773438,-0.769531 -2.1875,-1.671875 -4.25,-2.703125 z m 0,0"
           id="path25" />
      </g>
    </g>
  </g>
  <g
     fill="#38b6ff"
     fill-opacity="1"
     id="g31"
     transform="translate(-446.2803,-329.38703)">
    <g
       transform="translate(841.14314,460.60577)"
       id="g30">
      <g
         id="g29">
        <path
           d="m 58.484375,-103.35938 c 0.414063,0 0.984375,-0.0508 1.703125,-0.15625 1.132812,-0.10156 1.882812,-0.20703 2.25,-0.3125 0.363281,-0.10156 0.644531,-0.15625 0.84375,-0.15625 0.3125,0 0.695312,0.0547 1.15625,0.15625 0.46875,0.10547 0.78125,0.1836 0.9375,0.23438 0.15625,0.0547 0.4375,0.3125 0.84375,0.78125 0.414062,0.46094 0.703125,0.87109 0.859375,1.23437 0.15625,0.35547 0.488281,0.9961 1,1.92188 0.207031,0.523438 0.363281,0.9375 0.46875,1.25 1.644531,3.304688 2.625,5.445312 2.9375,6.421875 0.3125,0.980469 0.46875,1.726563 0.46875,2.234375 0,0.625 -0.15625,1.140625 -0.46875,1.546875 -0.3125,0.417969 -1.476563,0.730469 -3.484375,0.9375 -2.011719,0.210937 -6.417969,0.464844 -13.21875,0.765625 -11.25,0.523438 -18.320312,0.886719 -21.203125,1.09375 l -5.265625,0.453125 -0.15625,8.984375 c 0,2.46875 -0.02734,4.121094 -0.07813,4.953125 -0.05469,0.824219 -0.07813,1.386719 -0.07813,1.6875 0,0.9375 0.101562,1.742187 0.3125,2.40625 0.207031,0.667969 0.441406,1.054687 0.703125,1.15625 0.257813,0.105469 0.488281,0.15625 0.6875,0.15625 0.207031,0 0.414063,0 0.625,0 1.644531,-0.507813 6.03125,-0.972656 13.15625,-1.390625 2.882813,-0.207031 6.441406,-0.566406 10.671875,-1.078125 4.75,-0.625 7.535156,-0.9375 8.359375,-0.9375 0.71875,0 1.59375,0.933594 2.625,2.796875 1.03125,1.855469 1.828125,3.734375 2.390625,5.640625 0.570312,1.90625 0.859375,3.324219 0.859375,4.25 0,0.523437 -0.05469,0.9375 -0.15625,1.25 -0.105469,0.824219 -0.515625,1.3125 -1.234375,1.46875 -0.71875,0.148437 -3.042969,0.273437 -6.96875,0.375 0,0 -0.05469,0 -0.15625,0 -6.085938,0.3125 -12.96875,0.78125 -20.65625,1.40625 -7.679688,0.617187 -11.621094,1.078125 -11.828125,1.390625 -0.210937,0.304688 -0.46875,3.703125 -0.78125,10.203125 L 26.15625,-31.25 l 2.625,-0.46875 c 2.164062,-0.207031 7.582031,-0.519531 16.25,-0.9375 8.039062,-0.300781 13.351562,-0.609375 15.9375,-0.921875 0,0 0.898438,-0.07813 2.703125,-0.234375 1.800781,-0.15625 3.171875,-0.285156 4.109375,-0.390625 L 72.265625,-34.5 l 2.15625,4.484375 c 1.03125,2.375 1.800781,4.621094 2.3125,6.734375 0.519531,2.117188 0.78125,3.585938 0.78125,4.40625 0,0.617188 -0.101563,1.027344 -0.296875,1.234375 -0.3125,0.417969 -7.949219,0.726563 -22.90625,0.921875 -14.960938,0.3125 -24.246094,0.625 -27.859375,0.9375 -3.917969,0.417969 -6.960937,0.625 -9.125,0.625 -1.648437,0 -2.730469,-0.07813 -3.25,-0.234375 -0.511719,-0.15625 -1.027344,-0.597656 -1.546875,-1.328125 -1.242188,-1.851562 -1.914062,-4.066406 -2.015625,-6.640625 -0.09375,-2.582031 -0.140625,-4.597656 -0.140625,-6.046875 0,-5.769531 0.253906,-16.1875 0.765625,-31.25 0.3125,-9.90625 0.46875,-16.554688 0.46875,-19.953125 0,-0.519531 -0.02734,-1.550781 -0.07813,-3.09375 -0.05469,-1.550781 -0.390625,-3.359375 -1.015625,-5.421875 -0.71875,-2.269531 -1.105469,-4.050781 -1.15625,-5.34375 -0.054687,-1.289062 -0.078125,-2.035156 -0.078125,-2.234375 0,-1.65625 0.257812,-2.585937 0.78125,-2.796875 0.820312,-0.195312 12.679688,-1.125 35.578125,-2.78125 5.988281,-0.3125 10.269531,-0.67188 12.84375,-1.07813 z m 0,0"
           id="path28" />
      </g>
    </g>
  </g>
  <g
     fill="#000000"
     fill-opacity="0.4"
     id="g34"
     transform="translate(-446.2803,-329.38703)">
    <g
       transform="translate(955.96885,429.5136)"
       id="g33">
      <g
         id="g32">
        <path
           d="m 30.8125,-55.4375 c 0.769531,-0.257812 1.972656,-0.347656 3.609375,-0.265625 1.550781,0 3.164063,0.242187 4.84375,0.71875 1.675781,0.46875 2.859375,1.523437 3.546875,3.15625 0.25,0.429687 0.375,1.09375 0.375,2 0,0.898437 -0.171875,1.777344 -0.515625,2.640625 -0.167969,0.429688 -0.382813,1.054688 -0.640625,1.875 -0.261719,0.8125 -0.605469,1.820312 -1.03125,3.015625 -0.429688,1.210937 -0.730469,2.136719 -0.90625,2.78125 -0.167969,0.648437 -0.292969,1.054687 -0.375,1.21875 0.08203,0.605469 0.335938,0.820313 0.765625,0.640625 0.08203,0 0.378906,-0.0625 0.890625,-0.1875 0.519531,-0.125 1.082031,-0.25 1.6875,-0.375 0.601562,-0.132812 1.160156,-0.242188 1.671875,-0.328125 0.519531,-0.09375 0.820313,-0.140625 0.90625,-0.140625 0.175781,0 0.519531,-0.08203 1.03125,-0.25 0.257813,-0.257812 1.550781,-0.601562 3.875,-1.03125 0.164063,0 0.53125,-0.03906 1.09375,-0.125 0.5625,-0.09375 1.3125,-0.222656 2.25,-0.390625 0.4375,-0.08203 1.039063,-0.144531 1.8125,-0.1875 0.769531,-0.05078 1.671875,-0.07813 2.703125,-0.07813 2.0625,0 3.132812,0.132812 3.21875,0.390625 0.257812,0.261719 0.257812,0.390625 0,0.390625 -0.34375,0 -0.777344,0.214844 -1.296875,0.640625 -0.511719,0.429687 -0.980469,0.921875 -1.40625,1.484375 -0.429687,0.5625 -0.835937,1.148438 -1.21875,1.75 -0.386719,0.59375 -0.625,1.0625 -0.71875,1.40625 -0.25,1.375 -0.527344,2.539062 -0.828125,3.484375 -0.304688,0.949219 -0.714844,1.726563 -1.234375,2.328125 -0.511719,0.59375 -1.179687,1.0625 -2,1.40625 -0.8125,0.34375 -1.949219,0.605469 -3.40625,0.78125 -0.34375,0.08594 -0.667969,0.125 -0.96875,0.125 -0.304687,0 -0.585937,0.04297 -0.84375,0.125 -1.460937,0.179688 -2.75,0.398438 -3.875,0.65625 -1.117187,0.25 -2.140625,0.507812 -3.078125,0.765625 l -1.546875,0.39063 c -0.605469,0.167969 -0.996094,0.277344 -1.171875,0.328125 -0.167969,0.04297 -0.25,0.40625 -0.25,1.09375 -0.179688,0.511719 -0.308594,1.585937 -0.390625,3.21875 -0.167969,1.199219 -0.296875,2.492187 -0.390625,3.875 -0.08594,1.375 -0.167969,2.875 -0.25,4.5 -0.179688,2.5 -0.480469,4.21875 -0.90625,5.15625 -0.511719,1.03125 -1.199219,1.121094 -2.0625,0.265625 -0.605469,-0.769531 -1.078125,-0.859375 -1.421875,-0.265625 0,0.09375 -0.02344,0.164063 -0.0625,0.203125 -0.04297,0.042969 -0.0625,0.105469 -0.0625,0.1875 -0.08594,0.085938 -0.125,0.125 -0.125,0.125 -0.09375,0 -0.230469,-0.171875 -0.40625,-0.515625 -0.167969,-0.34375 -0.464844,-0.425781 -0.890625,-0.25 -0.773438,0.167969 -1.328125,0.125 -1.671875,-0.125 -0.261719,-0.257813 -0.433594,-0.5625 -0.515625,-0.90625 -0.08594,-0.34375 -0.125,-1.289063 -0.125,-2.84375 0,-1.882813 0.03906,-3.664063 0.125,-5.34375 0.08203,-1.675781 0.210938,-3.332031 0.390625,-4.96875 0.164063,-0.769531 0.164063,-1.15625 0,-1.15625 0,-0.257813 -1.03125,-0.04687 -3.09375,0.640625 -1.46875,0.429688 -2.890625,0.859375 -4.265625,1.296875 -1.375,0.429687 -2.703125,0.855469 -3.984375,1.28125 -1.042969,0.34375 -1.90625,0.585937 -2.59375,0.71875 -0.6875,0.125 -1.246094,0.230469 -1.671875,0.3125 -1.199219,0 -2.464844,-0.382813 -3.796875,-1.15625 C 8.273438,-19.722656 7.347656,-20.625 6.828125,-21.65625 l -0.375,-0.78125 v -1.671875 c 0.082031,-0.601563 0.164063,-1.289063 0.25,-2.0625 0.082031,-0.769531 0.210937,-1.628906 0.390625,-2.578125 0.257812,-1.976562 0.390625,-3.226562 0.390625,-3.75 v -0.765625 L 8,-33.65625 C 8.507812,-34 8.804688,-34.300781 8.890625,-34.5625 c 0.34375,-0.507812 0.816406,-0.804688 1.421875,-0.890625 0.519531,-0.175781 1.46875,-0.09375 2.84375,0.25 1.457031,0.34375 3.132812,0.515625 5.03125,0.515625 1.539062,0 3.148438,-0.0625 4.828125,-0.1875 1.675781,-0.132812 3.285156,-0.328125 4.828125,-0.578125 1.207031,-0.175781 1.894531,-0.519531 2.0625,-1.03125 0,-0.175781 0.01953,-0.539063 0.0625,-1.09375 0.05078,-0.5625 0.07813,-1.1875 0.07813,-1.875 0,-0.6875 0,-1.394531 0,-2.125 0,-0.726563 0,-1.351563 0,-1.875 -0.261719,-2.914063 -1.121094,-4.722656 -2.578125,-5.421875 -0.523438,-0.34375 -0.742188,-0.8125 -0.65625,-1.40625 0.601562,-2.84375 1.9375,-4.5625 4,-5.15625 z m 0,0"
           id="path31" />
      </g>
    </g>
  </g>
  <g
     fill="#000000"
     fill-opacity="0.4"
     id="g37"
     transform="translate(-446.2803,-329.38703)">
    <g
       transform="translate(1037.1989,429.5136)"
       id="g36">
      <g
         id="g35">
        <path
           d="m 30.8125,-55.4375 c 0.769531,-0.257812 1.972656,-0.347656 3.609375,-0.265625 1.550781,0 3.164063,0.242187 4.84375,0.71875 1.675781,0.46875 2.859375,1.523437 3.546875,3.15625 0.25,0.429687 0.375,1.09375 0.375,2 0,0.898437 -0.171875,1.777344 -0.515625,2.640625 -0.167969,0.429688 -0.382813,1.054688 -0.640625,1.875 -0.261719,0.8125 -0.605469,1.820312 -1.03125,3.015625 -0.429688,1.210937 -0.730469,2.136719 -0.90625,2.78125 -0.167969,0.648437 -0.292969,1.054687 -0.375,1.21875 0.08203,0.605469 0.335938,0.820313 0.765625,0.640625 0.08203,0 0.378906,-0.0625 0.890625,-0.1875 0.519531,-0.125 1.082031,-0.25 1.6875,-0.375 0.601562,-0.132812 1.160156,-0.242188 1.671875,-0.328125 0.519531,-0.09375 0.820313,-0.140625 0.90625,-0.140625 0.175781,0 0.519531,-0.08203 1.03125,-0.25 0.257813,-0.257812 1.550781,-0.601562 3.875,-1.03125 0.164063,0 0.53125,-0.03906 1.09375,-0.125 0.5625,-0.09375 1.3125,-0.222656 2.25,-0.390625 0.4375,-0.08203 1.039063,-0.144531 1.8125,-0.1875 0.769531,-0.05078 1.671875,-0.07813 2.703125,-0.07813 2.0625,0 3.132812,0.132812 3.21875,0.390625 0.257812,0.261719 0.257812,0.390625 0,0.390625 -0.34375,0 -0.777344,0.214844 -1.296875,0.640625 -0.511719,0.429687 -0.980469,0.921875 -1.40625,1.484375 -0.429687,0.5625 -0.835937,1.148438 -1.21875,1.75 -0.386719,0.59375 -0.625,1.0625 -0.71875,1.40625 -0.25,1.375 -0.527344,2.539062 -0.828125,3.484375 -0.304688,0.949219 -0.714844,1.726563 -1.234375,2.328125 -0.511719,0.59375 -1.179687,1.0625 -2,1.40625 -0.8125,0.34375 -1.949219,0.605469 -3.40625,0.78125 -0.34375,0.08594 -0.667969,0.125 -0.96875,0.125 -0.304687,0 -0.585937,0.04297 -0.84375,0.125 -1.460937,0.179688 -2.75,0.398438 -3.875,0.65625 -1.117187,0.25 -2.140625,0.507812 -3.078125,0.765625 l -1.546875,0.39063 c -0.605469,0.167969 -0.996094,0.277344 -1.171875,0.328125 -0.167969,0.04297 -0.25,0.40625 -0.25,1.09375 -0.179688,0.511719 -0.308594,1.585937 -0.390625,3.21875 -0.167969,1.199219 -0.296875,2.492187 -0.390625,3.875 -0.08594,1.375 -0.167969,2.875 -0.25,4.5 -0.179688,2.5 -0.480469,4.21875 -0.90625,5.15625 -0.511719,1.03125 -1.199219,1.121094 -2.0625,0.265625 -0.605469,-0.769531 -1.078125,-0.859375 -1.421875,-0.265625 0,0.09375 -0.02344,0.164063 -0.0625,0.203125 -0.04297,0.042969 -0.0625,0.105469 -0.0625,0.1875 -0.08594,0.085938 -0.125,0.125 -0.125,0.125 -0.09375,0 -0.230469,-0.171875 -0.40625,-0.515625 -0.167969,-0.34375 -0.464844,-0.425781 -0.890625,-0.25 -0.773438,0.167969 -1.328125,0.125 -1.671875,-0.125 -0.261719,-0.257813 -0.433594,-0.5625 -0.515625,-0.90625 -0.08594,-0.34375 -0.125,-1.289063 -0.125,-2.84375 0,-1.882813 0.03906,-3.664063 0.125,-5.34375 0.08203,-1.675781 0.210938,-3.332031 0.390625,-4.96875 0.164063,-0.769531 0.164063,-1.15625 0,-1.15625 0,-0.257813 -1.03125,-0.04687 -3.09375,0.640625 -1.46875,0.429688 -2.890625,0.859375 -4.265625,1.296875 -1.375,0.429687 -2.703125,0.855469 -3.984375,1.28125 -1.042969,0.34375 -1.90625,0.585937 -2.59375,0.71875 -0.6875,0.125 -1.246094,0.230469 -1.671875,0.3125 -1.199219,0 -2.464844,-0.382813 -3.796875,-1.15625 C 8.273438,-19.722656 7.347656,-20.625 6.828125,-21.65625 l -0.375,-0.78125 v -1.671875 c 0.082031,-0.601563 0.164063,-1.289063 0.25,-2.0625 0.082031,-0.769531 0.210937,-1.628906 0.390625,-2.578125 0.257812,-1.976562 0.390625,-3.226562 0.390625,-3.75 v -0.765625 L 8,-33.65625 C 8.507812,-34 8.804688,-34.300781 8.890625,-34.5625 c 0.34375,-0.507812 0.816406,-0.804688 1.421875,-0.890625 0.519531,-0.175781 1.46875,-0.09375 2.84375,0.25 1.457031,0.34375 3.132812,0.515625 5.03125,0.515625 1.539062,0 3.148438,-0.0625 4.828125,-0.1875 1.675781,-0.132812 3.285156,-0.328125 4.828125,-0.578125 1.207031,-0.175781 1.894531,-0.519531 2.0625,-1.03125 0,-0.175781 0.01953,-0.539063 0.0625,-1.09375 0.05078,-0.5625 0.07813,-1.1875 0.07813,-1.875 0,-0.6875 0,-1.394531 0,-2.125 0,-0.726563 0,-1.351563 0,-1.875 -0.261719,-2.914063 -1.121094,-4.722656 -2.578125,-5.421875 -0.523438,-0.34375 -0.742188,-0.8125 -0.65625,-1.40625 0.601562,-2.84375 1.9375,-4.5625 4,-5.15625 z m 0,0"
           id="path34" />
      </g>
    </g>
  </g>
  <g
     fill="#38b6ff"
     fill-opacity="1"
     id="g40"
     transform="translate(-446.2803,-329.38703)">
    <g
       transform="translate(952.89169,426.43646)"
       id="g39">
      <g
         id="g38">
        <path
           d="m 30.8125,-55.4375 c 0.769531,-0.257812 1.972656,-0.347656 3.609375,-0.265625 1.550781,0 3.164063,0.242187 4.84375,0.71875 1.675781,0.46875 2.859375,1.523437 3.546875,3.15625 0.25,0.429687 0.375,1.09375 0.375,2 0,0.898437 -0.171875,1.777344 -0.515625,2.640625 -0.167969,0.429688 -0.382813,1.054688 -0.640625,1.875 -0.261719,0.8125 -0.605469,1.820312 -1.03125,3.015625 -0.429688,1.210937 -0.730469,2.136719 -0.90625,2.78125 -0.167969,0.648437 -0.292969,1.054687 -0.375,1.21875 0.08203,0.605469 0.335938,0.820313 0.765625,0.640625 0.08203,0 0.378906,-0.0625 0.890625,-0.1875 0.519531,-0.125 1.082031,-0.25 1.6875,-0.375 0.601562,-0.132812 1.160156,-0.242188 1.671875,-0.328125 0.519531,-0.09375 0.820313,-0.140625 0.90625,-0.140625 0.175781,0 0.519531,-0.08203 1.03125,-0.25 0.257813,-0.257812 1.550781,-0.601562 3.875,-1.03125 0.164063,0 0.53125,-0.03906 1.09375,-0.125 0.5625,-0.09375 1.3125,-0.222656 2.25,-0.390625 0.4375,-0.08203 1.039063,-0.144531 1.8125,-0.1875 0.769531,-0.05078 1.671875,-0.07813 2.703125,-0.07813 2.0625,0 3.132812,0.132812 3.21875,0.390625 0.257812,0.261719 0.257812,0.390625 0,0.390625 -0.34375,0 -0.777344,0.214844 -1.296875,0.640625 -0.511719,0.429687 -0.980469,0.921875 -1.40625,1.484375 -0.429687,0.5625 -0.835937,1.148438 -1.21875,1.75 -0.386719,0.59375 -0.625,1.0625 -0.71875,1.40625 -0.25,1.375 -0.527344,2.539062 -0.828125,3.484375 -0.304688,0.949219 -0.714844,1.726563 -1.234375,2.328125 -0.511719,0.59375 -1.179687,1.0625 -2,1.40625 -0.8125,0.34375 -1.949219,0.605469 -3.40625,0.78125 -0.34375,0.08594 -0.667969,0.125 -0.96875,0.125 -0.304687,0 -0.585937,0.04297 -0.84375,0.125 -1.460937,0.179688 -2.75,0.398438 -3.875,0.65625 -1.117187,0.25 -2.140625,0.507812 -3.078125,0.765625 l -1.546875,0.39063 c -0.605469,0.167969 -0.996094,0.277344 -1.171875,0.328125 -0.167969,0.04297 -0.25,0.40625 -0.25,1.09375 -0.179688,0.511719 -0.308594,1.585937 -0.390625,3.21875 -0.167969,1.199219 -0.296875,2.492187 -0.390625,3.875 -0.08594,1.375 -0.167969,2.875 -0.25,4.5 -0.179688,2.5 -0.480469,4.21875 -0.90625,5.15625 -0.511719,1.03125 -1.199219,1.121094 -2.0625,0.265625 -0.605469,-0.769531 -1.078125,-0.859375 -1.421875,-0.265625 0,0.09375 -0.02344,0.164063 -0.0625,0.203125 -0.04297,0.042969 -0.0625,0.105469 -0.0625,0.1875 -0.08594,0.085938 -0.125,0.125 -0.125,0.125 -0.09375,0 -0.230469,-0.171875 -0.40625,-0.515625 -0.167969,-0.34375 -0.464844,-0.425781 -0.890625,-0.25 -0.773438,0.167969 -1.328125,0.125 -1.671875,-0.125 -0.261719,-0.257813 -0.433594,-0.5625 -0.515625,-0.90625 -0.08594,-0.34375 -0.125,-1.289063 -0.125,-2.84375 0,-1.882813 0.03906,-3.664063 0.125,-5.34375 0.08203,-1.675781 0.210938,-3.332031 0.390625,-4.96875 0.164063,-0.769531 0.164063,-1.15625 0,-1.15625 0,-0.257813 -1.03125,-0.04687 -3.09375,0.640625 -1.46875,0.429688 -2.890625,0.859375 -4.265625,1.296875 -1.375,0.429687 -2.703125,0.855469 -3.984375,1.28125 -1.042969,0.34375 -1.90625,0.585937 -2.59375,0.71875 -0.6875,0.125 -1.246094,0.230469 -1.671875,0.3125 -1.199219,0 -2.464844,-0.382813 -3.796875,-1.15625 C 8.273438,-19.722656 7.347656,-20.625 6.828125,-21.65625 l -0.375,-0.78125 v -1.671875 c 0.082031,-0.601563 0.164063,-1.289063 0.25,-2.0625 0.082031,-0.769531 0.210937,-1.628906 0.390625,-2.578125 0.257812,-1.976562 0.390625,-3.226562 0.390625,-3.75 v -0.765625 L 8,-33.65625 C 8.507812,-34 8.804688,-34.300781 8.890625,-34.5625 c 0.34375,-0.507812 0.816406,-0.804688 1.421875,-0.890625 0.519531,-0.175781 1.46875,-0.09375 2.84375,0.25 1.457031,0.34375 3.132812,0.515625 5.03125,0.515625 1.539062,0 3.148438,-0.0625 4.828125,-0.1875 1.675781,-0.132812 3.285156,-0.328125 4.828125,-0.578125 1.207031,-0.175781 1.894531,-0.519531 2.0625,-1.03125 0,-0.175781 0.01953,-0.539063 0.0625,-1.09375 0.05078,-0.5625 0.07813,-1.1875 0.07813,-1.875 0,-0.6875 0,-1.394531 0,-2.125 0,-0.726563 0,-1.351563 0,-1.875 -0.261719,-2.914063 -1.121094,-4.722656 -2.578125,-5.421875 -0.523438,-0.34375 -0.742188,-0.8125 -0.65625,-1.40625 0.601562,-2.84375 1.9375,-4.5625 4,-5.15625 z m 0,0"
           id="path37" />
      </g>
    </g>
  </g>
  <g
     fill="#38b6ff"
     fill-opacity="1"
     id="g43"
     transform="translate(-446.2803,-329.38703)">
    <g
       transform="translate(1034.1218,426.43646)"
       id="g42">
      <g
         id="g41">
        <path
           d="m 30.8125,-55.4375 c 0.769531,-0.257812 1.972656,-0.347656 3.609375,-0.265625 1.550781,0 3.164063,0.242187 4.84375,0.71875 1.675781,0.46875 2.859375,1.523437 3.546875,3.15625 0.25,0.429687 0.375,1.09375 0.375,2 0,0.898437 -0.171875,1.777344 -0.515625,2.640625 -0.167969,0.429688 -0.382813,1.054688 -0.640625,1.875 -0.261719,0.8125 -0.605469,1.820312 -1.03125,3.015625 -0.429688,1.210937 -0.730469,2.136719 -0.90625,2.78125 -0.167969,0.648437 -0.292969,1.054687 -0.375,1.21875 0.08203,0.605469 0.335938,0.820313 0.765625,0.640625 0.08203,0 0.378906,-0.0625 0.890625,-0.1875 0.519531,-0.125 1.082031,-0.25 1.6875,-0.375 0.601562,-0.132812 1.160156,-0.242188 1.671875,-0.328125 0.519531,-0.09375 0.820313,-0.140625 0.90625,-0.140625 0.175781,0 0.519531,-0.08203 1.03125,-0.25 0.257813,-0.257812 1.550781,-0.601562 3.875,-1.03125 0.164063,0 0.53125,-0.03906 1.09375,-0.125 0.5625,-0.09375 1.3125,-0.222656 2.25,-0.390625 0.4375,-0.08203 1.039063,-0.144531 1.8125,-0.1875 0.769531,-0.05078 1.671875,-0.07813 2.703125,-0.07813 2.0625,0 3.132812,0.132812 3.21875,0.390625 0.257812,0.261719 0.257812,0.390625 0,0.390625 -0.34375,0 -0.777344,0.214844 -1.296875,0.640625 -0.511719,0.429687 -0.980469,0.921875 -1.40625,1.484375 -0.429687,0.5625 -0.835937,1.148438 -1.21875,1.75 -0.386719,0.59375 -0.625,1.0625 -0.71875,1.40625 -0.25,1.375 -0.527344,2.539062 -0.828125,3.484375 -0.304688,0.949219 -0.714844,1.726563 -1.234375,2.328125 -0.511719,0.59375 -1.179687,1.0625 -2,1.40625 -0.8125,0.34375 -1.949219,0.605469 -3.40625,0.78125 -0.34375,0.08594 -0.667969,0.125 -0.96875,0.125 -0.304687,0 -0.585937,0.04297 -0.84375,0.125 -1.460937,0.179688 -2.75,0.398438 -3.875,0.65625 -1.117187,0.25 -2.140625,0.507812 -3.078125,0.765625 l -1.546875,0.39063 c -0.605469,0.167969 -0.996094,0.277344 -1.171875,0.328125 -0.167969,0.04297 -0.25,0.40625 -0.25,1.09375 -0.179688,0.511719 -0.308594,1.585937 -0.390625,3.21875 -0.167969,1.199219 -0.296875,2.492187 -0.390625,3.875 -0.08594,1.375 -0.167969,2.875 -0.25,4.5 -0.179688,2.5 -0.480469,4.21875 -0.90625,5.15625 -0.511719,1.03125 -1.199219,1.121094 -2.0625,0.265625 -0.605469,-0.769531 -1.078125,-0.859375 -1.421875,-0.265625 0,0.09375 -0.02344,0.164063 -0.0625,0.203125 -0.04297,0.042969 -0.0625,0.105469 -0.0625,0.1875 -0.08594,0.085938 -0.125,0.125 -0.125,0.125 -0.09375,0 -0.230469,-0.171875 -0.40625,-0.515625 -0.167969,-0.34375 -0.464844,-0.425781 -0.890625,-0.25 -0.773438,0.167969 -1.328125,0.125 -1.671875,-0.125 -0.261719,-0.257813 -0.433594,-0.5625 -0.515625,-0.90625 -0.08594,-0.34375 -0.125,-1.289063 -0.125,-2.84375 0,-1.882813 0.03906,-3.664063 0.125,-5.34375 0.08203,-1.675781 0.210938,-3.332031 0.390625,-4.96875 0.164063,-0.769531 0.164063,-1.15625 0,-1.15625 0,-0.257813 -1.03125,-0.04687 -3.09375,0.640625 -1.46875,0.429688 -2.890625,0.859375 -4.265625,1.296875 -1.375,0.429687 -2.703125,0.855469 -3.984375,1.28125 -1.042969,0.34375 -1.90625,0.585937 -2.59375,0.71875 -0.6875,0.125 -1.246094,0.230469 -1.671875,0.3125 -1.199219,0 -2.464844,-0.382813 -3.796875,-1.15625 C 8.273438,-19.722656 7.347656,-20.625 6.828125,-21.65625 l -0.375,-0.78125 v -1.671875 c 0.082031,-0.601563 0.164063,-1.289063 0.25,-2.0625 0.082031,-0.769531 0.210937,-1.628906 0.390625,-2.578125 0.257812,-1.976562 0.390625,-3.226562 0.390625,-3.75 v -0.765625 L 8,-33.65625 C 8.507812,-34 8.804688,-34.300781 8.890625,-34.5625 c 0.34375,-0.507812 0.816406,-0.804688 1.421875,-0.890625 0.519531,-0.175781 1.46875,-0.09375 2.84375,0.25 1.457031,0.34375 3.132812,0.515625 5.03125,0.515625 1.539062,0 3.148438,-0.0625 4.828125,-0.1875 1.675781,-0.132812 3.285156,-0.328125 4.828125,-0.578125 1.207031,-0.175781 1.894531,-0.519531 2.0625,-1.03125 0,-0.175781 0.01953,-0.539063 0.0625,-1.09375 0.05078,-0.5625 0.07813,-1.1875 0.07813,-1.875 0,-0.6875 0,-1.394531 0,-2.125 0,-0.726563 0,-1.351563 0,-1.875 -0.261719,-2.914063 -1.121094,-4.722656 -2.578125,-5.421875 -0.523438,-0.34375 -0.742188,-0.8125 -0.65625,-1.40625 0.601562,-2.84375 1.9375,-4.5625 4,-5.15625 z m 0,0"
           id="path40" />
      </g>
    </g>
  </g>
</svg>
