<?xml version="1.0" encoding="utf-8"?>
<!-- Generator: Adobe Illustrator 27.5.0, SVG Export Plug-In . SVG Version: 6.00 Build 0)  -->
<svg version="1.1" id="Capa_1" xmlns="http://www.w3.org/2000/svg" xmlns:xlink="http://www.w3.org/1999/xlink" x="0px" y="0px"
	 viewBox="0 0 2122 2122" style="enable-background:new 0 0 2122 2122;" xml:space="preserve">
<path style="fill:#C7E3D0;" d="M1391.922,1021.06c-22.412-79.838-58.484-150.785-105.051-162.128l-12.686-5.023l-125.281-49.603
	c0,0,43.42,93.145-35.017,95.946c-125.763,4.492-221.308-96.647-221.308-96.647s-55.275,24.872-102.243,44.601
	c-17.298,7.266-33.404,13.801-45.272,18.172l-5.744,2.444c-0.973,0.056-1.945,0.231-2.915,0.615h-0.001c0,0-0.001,0-0.001,0
	c-38.212,15.117-77.737,65.832-65.132,181.738c8.19,75.301-21.01,135.166-8.404,182.789c1.256,4.743,6.289,8.715,13.922,11.987
	c34.974,14.992,125.081,15.114,163.219,5.634l-2.756,34.904l325.658-54.626l56.671-84.49l-8.839-96.647
	c-0.439-4.791,15.252-12.615,18.576-12.123l0.605,0.141c0.265-0.013,0.527-0.039,0.806,0.003l76.508,11.327
	c-7.397-38.784-13.083-77.876-16.049-117.254c-0.259-3.452,5.112-3.424,5.369,0c1.568,20.805,3.887,41.549,6.849,62.201
	c2.683,18.707,5.855,37.33,9.415,55.881l6.699,0.992c2.447,0.362,4.717,3.945,5.089,8.004l6.857,74.984
	c6.556,26.379,13.639,52.629,21.022,78.762c0.943,3.337-4.24,4.748-5.178,1.428c-4.409-15.61-8.661-31.264-12.804-46.947
	l12.711,138.999c0.117,1.278,0.022,2.53-0.21,3.689c6.909-12.264,14.145-28.948,13.397-44.28
	c-0.597-12.246-3.012-25.973-6.422-40.525c23.442-10.797,58.175-35.127,71.586-50.899c3.623-4.26,5.707-7.902,5.571-10.475
	C1429.757,1138.349,1409.089,1082.224,1391.922,1021.06z"/>
<path style="fill:#82BCA9;" d="M1200.718,836.493c-0.824-3.354-6.005-1.933-5.178,1.427c5.911,24.023-3.2,48.853-19.15,67.01
	c-17.928,20.407-43.077,31.249-69.862,33.811c-29.871,2.857-59.901-3.497-88.053-13.132c-26.101-8.932-51.097-21.003-74.399-35.765
	c-26.515-16.797-50.701-37.103-71.87-60.274c-2.336-2.556-6.125,1.249-3.797,3.797c39.028,42.718,88.407,75.667,142.81,95.368
	c30.645,11.097,66.564,18.809,99.817,14.794c6.097,38.502,12.197,77.004,18.296,115.506c-3.854,1.027-7.415,2.712-10.16,6.132
	c-2.142,2.67,1.633,6.493,3.797,3.797c1.94-2.418,4.447-3.792,7.193-4.69c1.069,6.745,2.137,13.49,3.205,20.236
	c0.54,3.403,5.714,1.958,5.178-1.427c-1.056-6.668-2.112-13.337-3.168-20.005c3.929-0.595,8.014-0.813,11.615-1.745
	c7.914-2.05,14.584-7.233,14.392-16.055c-0.118-5.438-1.661-10.967-2.646-16.296c-1.093-5.914-2.185-11.829-3.278-17.743
	c-2.147-11.625-4.293-23.25-6.441-34.875c-2.486-13.46-4.973-26.921-7.459-40.382c-0.005-0.025-0.019-0.037-0.026-0.061
	c12.719-5.081,24.56-12.595,34.943-23.194C1195.993,892.804,1207.56,864.304,1200.718,836.493z"/>
<path style="fill:#C27262;" d="M1425.568,1175.106c-13.411,15.772-48.144,40.102-71.586,50.899
	c3.41,14.552,5.826,28.279,6.422,40.525c0.748,15.332-6.488,32.016-13.397,44.28c-0.365,1.816-1.107,3.354-2.096,4.288
	l11.293,22.867l-15.408,139.718l-16.089-0.805c0.199,5.491,1.602,12.336,3.863,20.158c-15.408,3.674-33.986,14.752-33.296,20.566
	c1.058,8.913,17.901,6.034,17.901,6.034s-27.223,13.287-24.203,28.282c3.018,14.995,38.091,3.169,38.091,3.169
	s-32.208,11.281-28.287,23.444c3.921,12.164,38.1,7.748,38.1,7.748s-20.834,2.587-20.854,9.988
	c-0.035,14.015,45.545,18.343,49.061,17.709c1.513-0.273,4.649-1.226,7.553-2.973c2.548-1.534,4.911-3.682,5.844-6.533
	c-1.625,0.245-3.705-1.112-3.402-3.314c0.798-5.778-2.496-11.283-7.562-13.888c-1.441-0.74-1.843-3.14-0.543-4.216
	c4.861-4.027,7.206-10.711,5.064-16.809c-2.15-6.126-8.403-9.939-14.749-9.818c-2.251,0.042-3.651-3.026-1.899-4.583
	c4.109-3.65,5.905-9.579,3.828-14.805c-2.157-5.429-8.352-8.717-14.065-7.809c-2.289,0.364-4.189-1.725-3.031-3.944
	c2.416-4.628,5.158-9.628,5.812-14.891c0.775-6.224-3.573-8.511-9.238-9.015c-3.42-0.305-3.44-5.676,0-5.37
	c7.379,0.657,14.409,3.887,14.703,12.184c0.192,5.432-2.072,10.816-4.557,15.762c6.343,0.639,12.254,4.242,15.001,10.296
	c2.569,5.66,1.865,12.28-1.365,17.426c6.408,1.54,11.978,6.027,14.431,12.314c2.694,6.909,0.982,14.981-3.78,20.521
	c3.996,3.097,6.46,7.618,7.117,12.565l27.783-79.475c0,0,75.637-142.169,75.637-177.886
	C1483.665,1299.891,1449.569,1235.966,1425.568,1175.106z"/>
<path style="fill:#14111B;" d="M1272.919,439.438c-5.926,103.667-21.731,225.049-72.191,253.514
	c-27.313,15.408-61.865,8.944-61.865,8.944l10.04,102.41l125.281,49.603c2.638-21.972-0.107-46.311-2.511-61.013
	c-6.974-42.651-27.009-85.147-17.508-127.307c1.189,41.544,11.694,90.918,21.148,87.766c9.456-3.152,9.506-180.966,9.849-272.534
	c0.13-35.055-1.983-70.167,0.45-105.137c-4.981,38.261-12.706,64.128-12.706,64.128S1272.913,439.627,1272.919,439.438z"/>
<path style="fill:#6699D1;" d="M1375.614,1669.926c-49.025,27.313-596.491,41.32-637.11,11.906c-0.828-0.6-1.541-1.324-2.273-2.029
	c-98.562,117.812-98.576,326.986-98.576,326.986h86.442h360.175h360.175C1444.446,2006.789,1432.44,1747.663,1375.614,1669.926z"/>
<path style="fill:#C7E3D0;" d="M1134.565,1057.963c3.132-0.47,6.317-0.794,9.333-1.423c3.586-0.748,7.58-1.961,10.066-4.824
	c3.382-3.896,1.793-9.419,0.953-13.965c-2.072-11.217-4.143-22.434-6.215-33.651c-4.082-22.098-8.165-44.196-12.246-66.294
	c-6.529,2.241-13.263,3.876-20.135,4.979C1122.402,981.178,1128.483,1019.571,1134.565,1057.963z"/>
<path style="fill:#C7E3D0;" d="M1375.614,1669.926c11.718-6.529,7.157-30.003-2.979-58.922c-2.904,1.747-6.04,2.7-7.553,2.973
	c-3.515,0.634-49.096-3.694-49.061-17.709c0.019-7.401,20.854-9.988,20.854-9.988s-34.179,4.416-38.1-7.748
	c-3.921-12.164,28.287-23.444,28.287-23.444s-35.073,11.827-38.091-3.169c-3.019-14.995,24.203-28.282,24.203-28.282
	s-16.843,2.879-17.901-6.034c-0.69-5.815,17.888-16.892,33.296-20.566c-2.26-7.822-3.664-14.666-3.863-20.158
	c-0.003-0.078-0.017-0.169-0.02-0.246c-1.302-43.424,7.699-80.922,10.505-147.772c0,0,4.099-5.206,8.987-13.215
	c-0.169,0.096-0.335,0.209-0.514,0.269l-84.934,29.033c-0.55,0.189-1.088,0.214-1.614,0.169c-3.91,1.048-19.274,1.964-19.697-2.664
	l-4.476-48.942l-35.368,11.889c0,0-181.739,98.748-312.002,130.263c-42.731,10.338-84.174,13.068-118.338,11.611
	c-6.763,76.972-62.36,202.311-31.006,232.53c0.732,0.705,1.445,1.429,2.273,2.029
	C779.123,1711.245,1326.589,1697.239,1375.614,1669.926z"/>
<path style="fill:#C27262;" d="M1254.793,403.281c-17.809-6.775-31.864-3.527-37.927-3.471c-6.648,0.062-4.563-24.525,0.417-24.961
	c4.979-0.435,24.833,2.254,41.872,12.965c7.406,4.656,11.801,8.688,14.497,11.896c-0.475-61.41-12.677-171.837-98.135-162.681
	c-24.099,68.765-52.637,109.058-86.196,140.989c9.497-1.509,17.033-1.68,19.967-1.293c5.787,0.764,5.032,25.523-2.763,25.023
	c-7.108-0.456-23.178-4.635-44.96,0.976c-0.474,0.122-0.893,0.24-1.35,0.361c-14.851,11.77-30.559,23.081-47.178,35.29
	c-33.56,24.657-42.019,77.038-37.818,182.089c4.204,105.084,28.367,158.337,18.843,162.271c-0.563,0.232-1.225,0.32-2.034,0.208
	C951.408,777.342,936,640.076,936,640.076c2.801,96.647-22.5,145.839-43.422,163.529c0,0,95.544,101.139,221.308,96.647
	c78.437-2.801,35.017-95.946,35.017-95.946c-66.533-20.31-124.661-85.442-151.263-178.149
	c74.322,67.116,141.223,75.739,141.223,75.739s34.552,6.463,61.865-8.944c50.46-28.465,66.265-149.847,72.191-253.514
	c0.058-1.746,0.368-11.263,0.635-24.631C1271.885,413.025,1270.333,409.193,1254.793,403.281z"/>
<path style="fill:#14111B;" d="M936,640.076c0,0,15.408,137.266,56.027,142.869c0.809,0.112,1.471,0.025,2.034-0.208
	c-39.374-41.87-64.667-191.657-45.773-297.346c1.191-6.741,2.61-13.464,4.286-20.167
	c-45.989,156.643-163.408,244.117-162.238,382.982c46.968-19.729,102.243-44.601,102.243-44.601
	C913.5,785.915,938.801,736.723,936,640.076z"/>
<path style="fill:#222032;" d="M1286.869,266.445c-10.505-84.041-121.859-159.678-237.415-151.274
	c-111.08,8.079-226.503,52.798-225.509,247.571c1.399,274.533-130.263,266.129-87.542,506.695h0.001
	c2.51-0.829,5.462-1.882,8.659-3.059c11.867-4.371,27.974-10.906,45.272-18.172c-1.169-138.865,116.249-226.339,162.238-382.982
	c-1.626,6.503-3.049,13.242-4.286,20.167c-18.894,105.689,6.399,255.475,45.773,297.346c9.524-3.933-14.639-57.187-18.843-162.271
	c-4.201-105.051,4.258-157.431,37.818-182.089c16.619-12.21,32.326-23.52,47.178-35.29c0.457-0.121,0.876-0.238,1.35-0.361
	c21.782-5.611,37.851-1.432,44.96-0.976c7.795,0.499,8.55-24.26,2.763-25.023c-2.934-0.388-10.47-0.216-19.967,1.293
	c33.559-31.931,62.097-72.224,86.196-140.989c85.458-9.156,97.66,101.271,98.135,162.681c-2.697-3.208-7.091-7.241-14.497-11.896
	c-17.039-10.711-36.892-13.4-41.872-12.965c-4.979,0.435-7.064,25.023-0.417,24.961c6.063-0.056,20.118-3.304,37.927,3.471
	c15.541,5.912,17.092,9.744,18.761,11.525c-0.267,13.368-0.576,22.885-0.635,24.631c-0.006,0.19-0.012,0.374-0.012,0.374
	s7.725-25.866,12.706-64.128C1289.612,344.956,1291.844,306.239,1286.869,266.445z"/>
<path style="fill:#9C4D42;" d="M997.641,626.157c26.601,92.707,84.73,157.839,151.263,178.149l-10.04-102.41
	C1138.863,701.896,1071.962,693.273,997.641,626.157z"/>
<path style="fill:#222032;" d="M1094.121,470.733c8.39,0,15.107-8.078,15.107-17.943c0-10.021-6.717-18.061-15.107-18.061
	c-8.118,0-14.955,8.04-14.955,18.061C1079.167,462.655,1086.003,470.733,1094.121,470.733z"/>
<path style="fill:#222032;" d="M1231.25,470.733c8.157,0,14.955-8.04,14.955-17.983c0-9.943-6.798-18.021-14.955-18.021
	c-8.39,0-15.069,8.078-15.069,18.021C1216.181,462.693,1222.861,470.733,1231.25,470.733z"/>
<path style="fill:#9C4D42;" d="M1190.058,525.038c-2.122,1.778-4.348,3.424-6.654,4.956c-4.798,3.188-9.934,5.861-15.318,7.912
	c-3.045,1.16-1.91,5.861,1,5.246c3.225,0.407,20.351,2.378,24.945-0.949c4.729-3.425,5.754-16.843,5.307-20.651
	c0.063-3.094-2.247-6.081-3.996-8.406c-2.567-3.413-5.907-6.979-6.752-11.297c-0.661-3.388-5.838-1.954-5.177,1.427
	c0.793,4.06,3.445,7.524,5.891,10.74c1.154,1.516,2.345,3.013,3.374,4.618c0.39,0.607,0.808,1.239,1.074,1.912l0.198,1.015
	l-0.764,0.716C1192.168,523.225,1191.125,524.145,1190.058,525.038z"/>
<path style="fill:#9C4D42;" d="M1194.168,603.151c-9.488,3.296-19.674,3.724-29.382,1.13c-3.343-0.893-4.769,4.285-1.428,5.178
	c10.58,2.827,21.885,2.467,32.238-1.13C1198.839,607.201,1197.444,602.012,1194.168,603.151z"/>
<path style="fill:#3B6BA9;" d="M1114.734,1998.261c6.406-9.918,12.812-19.836,19.218-29.754c1.507-2.332,3.012-4.664,4.519-6.996
	c0.331-0.513,0.721-1.035,1.032-1.576c0.87-0.226,3.095-1.73,3.495-1.941c2.584-1.369,5.17-2.737,7.755-4.106
	c1.05-0.556,2.107-1.1,3.159-1.652c-0.365,5.569-0.729,11.139-1.094,16.708c-0.227,3.45,5.144,3.436,5.369,0
	c0.428-6.539,0.857-13.077,1.284-19.615c8.755-4.566,17.525-9.111,26.151-13.9c1.744-0.968,2.321-2.16,2.458-4.059
	c0.164-2.285,0.286-4.573,0.43-6.859c1.469-23.373,2.937-46.746,4.406-70.119c1.934-30.787,3.869-61.574,5.803-92.361
	c0.737-11.736,1.474-23.471,2.211-35.207c0.374-5.945,0.977-11.925,1.124-17.881l0.051-0.811c0.217-3.45-5.154-3.438-5.37,0
	c-0.466,7.425-0.933,14.85-1.4,22.275c-1.119,17.836-2.24,35.673-3.36,53.509c-1.357,21.591-2.714,43.182-4.07,64.773
	c-1.179,18.76-2.357,37.519-3.536,56.279c-0.385,6.126-0.77,12.253-1.155,18.38c-0.147,2.342-0.694,5.136-0.612,7.609
	c-7.572,4.009-15.144,8.017-22.716,12.026c3.776-57.67,7.55-115.34,11.325-173.01c1.222-18.653,2.442-37.307,3.664-55.96
	c0.226-3.45-5.145-3.436-5.369,0c-4.342,66.324-8.683,132.647-13.025,198.971c-0.719,10.981-1.437,21.962-2.156,32.943
	c-3.305,1.749-6.609,3.499-9.914,5.248c-3.292,1.743-7.599,3.079-9.704,6.276c-4.327,6.57-8.538,13.219-12.807,19.828
	c-3.934,6.091-7.868,12.182-11.802,18.272C1108.218,1998.463,1112.863,2001.158,1114.734,1998.261z M1139.563,1959.835
	c0.04-0.074,0.095-0.144,0.132-0.219C1140.117,1958.736,1139.9,1959.45,1139.563,1959.835z M1139.427,1959.956
	c-0.09,0.067-0.182,0.11-0.272,0.072C1139.201,1960.047,1139.347,1959.972,1139.427,1959.956z"/>
<path style="fill:#3B6BA9;" d="M1404.864,1887.756c1.491,3.116,6.121,0.395,4.636-2.71c-21.528-44.987-38.602-92.065-50.901-140.397
	c-3.482-13.684-6.572-27.464-9.294-41.319c-0.665-3.387-5.842-1.953-5.178,1.427c9.697,49.351,24.239,97.725,43.453,144.208
	C1392.99,1862.05,1398.752,1874.984,1404.864,1887.756z"/>
<path style="fill:#82BCA9;" d="M1312.822,1050.899c-3.56-18.55-6.732-37.174-9.415-55.881c-2.962-20.652-5.281-41.396-6.849-62.201
	c-0.257-3.424-5.629-3.452-5.369,0c2.966,39.378,8.652,78.47,16.049,117.254L1312.822,1050.899z"/>
<path style="fill:#82BCA9;" d="M1334.507,1168.121c4.142,15.683,8.395,31.337,12.804,46.947c0.938,3.32,6.12,1.909,5.178-1.428
	c-7.382-26.133-14.466-52.383-21.022-78.762L1334.507,1168.121z"/>
<path style="fill:#FFFFFF;" d="M1172.108,212.14c1.432,3.14,6.061,0.414,4.637-2.71c-14.551-31.894-35.976-60.469-62.501-83.39
	c-2.603-2.249-6.418,1.533-3.797,3.797C1136.672,152.497,1157.724,180.608,1172.108,212.14z"/>
<path style="fill:#FFFFFF;" d="M1181.82,563.196c-28.791,0-52.13-5.742-52.13,2.696c0,8.439,21.991,28.312,50.782,28.312
	c28.79,0,46.52-22.761,45.119-28.014C1224.189,560.937,1210.609,563.196,1181.82,563.196z"/>
<path style="fill:#B3B3B3;" d="M1229.923,1038.743l-0.605-0.141c-3.324-0.492-19.015,7.333-18.576,12.123l8.839,96.647l1.107-1.651
	l3.409,26.757c4.12-2.206,8.391-4.106,12.392-5.552l-11.011-120.402C1225.076,1042.137,1227.039,1038.887,1229.923,1038.743z"/>
<path style="fill:#B3B3B3;" d="M1252.156,1338.251l-4.598-50.285c-3.347,2.18-5.889,3.631-6.648,3.865
	c-1.065,0.327-3.084,0.696-5.38,0.811l-2.586,0.869l4.476,48.942c0.423,4.628,15.787,3.712,19.697,2.664
	C1254.609,1344.902,1252.519,1342.211,1252.156,1338.251z"/>
<path style="fill:#E6E6E6;" d="M1347.218,1307.12l-12.711-138.999l-3.04-33.242l-6.857-74.984c-0.372-4.059-2.642-7.642-5.089-8.004
	l-6.699-0.992l-5.585-0.827l-76.508-11.327c-0.279-0.041-0.541-0.015-0.806-0.003c-2.884,0.144-4.846,3.394-4.445,7.781
	l11.011,120.402c2.465-0.891,4.78-1.571,6.923-2.066l-9.387-102.643c-0.394-4.3,1.729-7.424,4.714-6.982l79.703,11.8
	c2.197,0.326,4.235,3.541,4.568,7.185l20.296,221.918c0.333,3.645-1.088,7.176-3.19,7.895l-76.24,26.061
	c-2.854,0.976-5.509-1.711-5.901-6.011l-3.727-40.752c-2.42,1.771-4.691,3.333-6.688,4.635l4.598,50.285
	c0.362,3.96,2.453,6.651,4.961,6.865c0.526,0.045,1.064,0.02,1.614-0.169l84.934-29.033c0.179-0.061,0.345-0.173,0.514-0.269
	c0.257-0.146,0.499-0.328,0.732-0.547c0.989-0.934,1.731-2.472,2.096-4.288C1347.24,1309.651,1347.336,1308.398,1347.218,1307.12z"
	/>
<path style="fill:#3D4193;" d="M1323.009,1074.22c-0.332-3.644-2.37-6.859-4.568-7.185l-79.703-11.8
	c-2.984-0.442-5.107,2.683-4.714,6.982l9.387,102.643c5.519-1.274,9.67-1.153,10.542,1.171c3.151,8.404-8.405,21.71-8.405,21.71
	s27.313-16.808,31.515-2.101c3.802,13.303-23.263,32.281-28.478,35.794c-0.551,0.371-0.936,0.624-0.936,0.624
	s0.385-0.193,0.95-0.468c5.106-2.487,30.775-14.385,32.666-3.033c2.101,12.606-28.013,35.718-28.013,35.718s19.697-7.266,23.111-0.7
	c4.172,8.021-10.353,21.147-22.118,29.756l3.727,40.752c0.392,4.3,3.047,6.987,5.901,6.011l76.24-26.061
	c2.102-0.719,3.523-4.25,3.19-7.895L1323.009,1074.22z"/>
<path style="fill:#C27262;" d="M1253.254,1254.274c0,0,30.114-23.112,28.013-35.718c-1.891-11.352-27.56,0.546-32.666,3.033
	c-0.565,0.275-0.95,0.468-0.95,0.468s0.385-0.253,0.936-0.624c5.215-3.512,32.28-22.491,28.478-35.794
	c-4.202-14.707-31.515,2.101-31.515,2.101s11.556-13.306,8.405-21.71c-0.872-2.324-5.023-2.445-10.542-1.171
	c-2.143,0.495-4.458,1.175-6.923,2.066c-4.001,1.446-8.273,3.346-12.392,5.552l-3.409-26.757l-1.107,1.651l-56.671,84.49
	l-325.658,54.626l2.756-34.904c-38.138,9.48-128.245,9.358-163.219-5.634c-5.185,65.888-8.85,156.259,7.089,181.307
	c5.589,8.782,38.072,18.082,83.359,20.015c34.164,1.458,75.608-1.272,118.338-11.611
	c130.263-31.515,312.002-130.263,312.002-130.263l35.368-11.889l2.586-0.869c2.296-0.115,4.315-0.484,5.38-0.811
	c0.759-0.234,3.301-1.684,6.648-3.865c1.998-1.302,4.268-2.864,6.688-4.635c11.765-8.609,26.29-21.735,22.118-29.756
	C1272.951,1247.008,1253.254,1254.274,1253.254,1254.274z"/>
<path style="fill:#82BCA9;" d="M825.06,1016.521c10.435,49.746,15.667,100.313,18.687,150.989
	c1.416,23.779,2.183,47.771,5.624,71.37c0.495,3.406,5.671,1.958,5.177-1.427c-3.072-21.068-3.816-42.507-5.065-63.737
	c-1.532-26.065-3.095-52.163-6.296-78.087c-3.11-25.191-6.909-50.422-11.881-75.315c-4.176-20.916-9.392-41.83-17.997-61.411
	c-7.876-17.922-19.169-34.536-35.631-45.561c-2.88-1.928-5.57,2.721-2.71,4.636C806.764,939.272,817.671,981.292,825.06,1016.521z"
	/>
<path style="fill:#3B6BA9;" d="M669.556,1924.135c10.96-3.742,21.297-8.507,31.158-13.984c-0.703,4.747-1.497,9.479-2.112,14.238
	c-2.873,22.224-4.761,44.567-5.697,66.956c-0.145,3.455,5.225,3.448,5.369,0c1.183-28.298,3.967-56.508,8.248-84.496
	c47.083-28.216,81.824-74.563,109.062-121.843c10.456-18.153,20.145-36.732,29.823-55.307c1.595-3.061-3.037-5.779-4.636-2.71
	c-32.05,61.505-65.958,126.16-124.174,166.99c-2.926,2.052-5.94,3.968-8.964,5.869c1.37-8.421,2.815-16.831,4.466-25.204
	c7.52-38.143,17.901-75.722,31.047-112.309c7.5-20.872,15.911-41.403,25.191-61.546c1.436-3.118-3.19-5.848-4.636-2.711
	c-16.529,35.873-30.36,72.969-41.263,110.934c-8.901,30.993-15.736,62.548-20.727,94.4c-10.676,6.223-21.864,11.543-33.585,15.545
	C664.876,1920.068,666.273,1925.256,669.556,1924.135z"/>
<path style="fill:#3B6BA9;" d="M732.946,1909.225c-4.902,2.801-9.805,5.603-14.708,8.404c-1.219,0.697-1.743,2.463-0.962,3.673
	c0.794,1.232,2.368,1.709,3.672,0.963c4.903-2.801,9.805-5.602,14.708-8.404c1.219-0.697,1.743-2.463,0.964-3.673
	C735.825,1908.956,734.253,1908.479,732.946,1909.225z"/>
<path style="fill:#3B6BA9;" d="M768.432,1876.38c-5.572,4.937-11.145,9.874-16.716,14.812c-1.055,0.934-1.024,2.856,0,3.797
	c1.125,1.032,2.671,0.996,3.797,0c5.571-4.937,11.144-9.874,16.716-14.811c1.054-0.934,1.024-2.856,0-3.797
	C771.104,1875.347,769.557,1875.384,768.432,1876.38z"/>
<path style="fill:#3B6BA9;" d="M795.434,1850.816c-2.801,2.801-5.603,5.603-8.404,8.404c-0.994,0.994-1.068,2.816,0,3.797
	c1.072,0.984,2.735,1.061,3.797,0c2.801-2.801,5.603-5.603,8.404-8.404c0.994-0.994,1.068-2.816,0-3.797
	C798.159,1849.832,796.495,1849.755,795.434,1850.816z"/>
<path style="fill:#3B6BA9;" d="M828.101,1806.275c-1.217-0.643-3.002-0.378-3.672,0.963c-2.801,5.603-5.603,11.205-8.404,16.808
	c-0.627,1.255-0.376,2.966,0.963,3.673c1.217,0.643,3.003,0.378,3.672-0.963c2.802-5.602,5.603-11.205,8.405-16.808
	C829.692,1808.694,829.44,1806.982,828.101,1806.275z"/>
<path style="fill:#3B6BA9;" d="M852.446,1773.589c2.801-8.404,5.603-16.808,8.405-25.212c1.095-3.286-4.088-4.695-5.178-1.428
	c-2.8,8.405-5.602,16.809-8.404,25.213C846.174,1775.447,851.357,1776.856,852.446,1773.589z"/>
<path style="fill:#9C4D42;" d="M1211.315,1206.453c-3.744,3.493-6.119,8.393-5.935,13.694c0.218,6.339,3.938,11.982,9.248,15.124
	c-5.055,4.357-7.978,11.073-7.14,17.82c0.908,7.309,6.045,13.524,12.754,16.247c-2.8,6.027-2.279,13.346,1.612,18.868
	c1.976,2.803,6.633,0.123,4.636-2.71c-3.543-5.028-3.519-11.352,0.047-16.359c0.981-1.377-0.012-3.597-1.604-3.944
	c-6.191-1.351-11.38-6.373-12.147-12.818c-0.767-6.446,3.067-12.519,8.75-15.32c2.097-1.034,1.506-4.357-0.641-4.907
	c-5.476-1.403-9.901-6.214-10.148-12.001c-0.244-5.728,3.77-11.029,9.119-12.797c3.33-1.101,1.943-5.741-1.427-5.178
	c-4.493,0.751-8.618-1.838-10.842-5.632c-1.748-2.979-6.39-0.28-4.637,2.71C1204.957,1202.655,1207.902,1205.12,1211.315,1206.453z"
	/>
<path style="fill:#9C4D42;" d="M1373.128,1584.512c4.762-5.54,6.474-13.612,3.78-20.521c-2.453-6.288-8.023-10.775-14.431-12.314
	c3.23-5.146,3.934-11.766,1.365-17.426c-2.748-6.054-8.659-9.657-15.001-10.296c2.485-4.947,4.749-10.331,4.557-15.762
	c-0.294-8.297-7.324-11.527-14.703-12.184c-3.44-0.306-3.42,5.065,0,5.37c5.665,0.504,10.013,2.791,9.238,9.015
	c-0.654,5.263-3.396,10.263-5.812,14.891c-1.157,2.219,0.742,4.308,3.031,3.944c5.713-0.908,11.908,2.38,14.065,7.809
	c2.077,5.226,0.281,11.155-3.828,14.805c-1.753,1.558-0.352,4.626,1.899,4.583c6.346-0.12,12.599,3.692,14.749,9.818
	c2.141,6.098-0.203,12.782-5.064,16.809c-1.3,1.077-0.898,3.476,0.543,4.216c5.067,2.605,8.36,8.11,7.562,13.888
	c-0.303,2.202,1.777,3.559,3.402,3.314c0.867-0.131,1.613-0.698,1.776-1.886c0.255-1.859,0.228-3.708-0.01-5.507
	C1379.589,1592.129,1377.125,1587.608,1373.128,1584.512z"/>
</svg>
